<svg width="213" height="61" viewBox="0 0 213 61" fill="none" xmlns="http://www.w3.org/2000/svg">
<path d="M1.2 45.04L5.04 44.08V3.12L1.2 2.16V1.2H35.44V12.72H33.52C32.7093 12.08 32.0053 11.2693 31.408 10.288C30.0427 7.984 29.36 5.488 29.36 2.8H15.6V22.96H22.96C23.2587 21.3387 23.8133 19.824 24.624 18.416C24.9653 17.776 25.3707 17.1573 25.84 16.56H27.76V30.96H25.84C25.3707 30.3627 24.9653 29.744 24.624 29.104C23.8133 27.696 23.2587 26.1813 22.96 24.56H15.6V44.4H30.64C30.64 41.712 31.3227 39.216 32.688 36.912C33.2853 35.9307 33.9893 35.12 34.8 34.48H36.72V46H1.2V45.04ZM39.89 45.04L45.01 43.12L52.946 32.944L42.13 15.92L38.93 14.96V14H47.57C49.618 14 51.282 14.4693 52.562 15.408C53.842 16.304 55.058 17.648 56.21 19.44L59.474 24.624L65.49 16.88L60.69 14.96V14H72.85V14.96L67.73 16.88L60.434 26.16L71.89 44.08L75.09 45.04V46H66.45C64.402 46 62.738 45.552 61.458 44.656C60.178 43.76 58.962 42.3947 57.81 40.56L53.97 34.544L47.25 43.12L52.05 45.04V46H39.89V45.04ZM93.34 46.96C87.8787 46.96 83.6333 45.4667 80.604 42.48C77.5747 39.4507 76.06 35.2907 76.06 30C76.06 24.7093 77.5747 20.5707 80.604 17.584C83.6333 14.5547 87.8787 13.04 93.34 13.04C97.2653 13.04 100.209 13.7227 102.172 15.088C104.177 16.4533 105.18 18.1173 105.18 20.08C105.18 21.5307 104.732 22.704 103.836 23.6C102.983 24.4533 101.831 24.88 100.38 24.88C99.7827 24.88 99.1853 24.8373 98.588 24.752L97.82 24.56V14.96L96.924 14.64C96.284 14.4267 95.516 14.32 94.62 14.32C92.188 14.32 90.2893 15.472 88.924 17.776C87.6013 20.08 86.94 24.1547 86.94 30C86.94 35.6747 87.6013 39.664 88.924 41.968C90.2893 44.2293 92.188 45.36 94.62 45.36C96.284 45.36 97.82 44.976 99.228 44.208C100.679 43.3973 101.809 42.352 102.62 41.072C103.473 39.7493 103.9 38.4053 103.9 37.04H105.5C105.5 38.7467 104.988 40.368 103.964 41.904C102.94 43.44 101.511 44.6773 99.676 45.616C97.8413 46.512 95.7293 46.96 93.34 46.96ZM122.478 46.96C118.68 46.96 115.758 46.1493 113.71 44.528C111.662 42.9067 110.638 40.8373 110.638 38.32C110.638 36.656 111 35.0133 111.726 33.392C112.024 32.624 112.408 31.92 112.878 31.28C114.627 30.8533 116.526 30.4693 118.574 30.128C123.182 29.36 127.256 28.8907 130.798 28.72V26.8C130.798 22.064 130.222 18.8 129.07 17.008C127.918 15.216 126.147 14.32 123.758 14.32C122.862 14.32 122.094 14.4267 121.454 14.64L120.558 14.96V24.56L119.726 24.752C119.043 24.8373 118.467 24.88 117.998 24.88C116.547 24.88 115.374 24.4533 114.478 23.6C113.624 22.704 113.198 21.5307 113.198 20.08C113.198 18.1173 114.179 16.4533 116.142 15.088C118.147 13.7227 121.112 13.04 125.038 13.04C128.366 13.04 131.224 13.6373 133.614 14.832C136.046 15.984 137.88 17.6053 139.118 19.696C140.398 21.744 141.038 24.112 141.038 26.8V44.08L144.878 45.04V46H139.118C136.558 46 134.574 45.2107 133.166 43.632C132.568 42.992 132.099 42.1813 131.758 41.2C131.16 42.2667 130.456 43.2267 129.646 44.08C127.726 46 125.336 46.96 122.478 46.96ZM125.038 44.72C126.616 44.72 128.046 43.8667 129.326 42.16C129.795 41.52 130.286 40.6667 130.798 39.6V30.32C128.835 30.32 126.958 30.4267 125.166 30.64C123.843 30.8107 122.947 30.9173 122.478 30.96C122.264 31.4293 122.051 32.0693 121.838 32.88C121.411 34.5013 121.198 36.1013 121.198 37.68C121.198 40.0693 121.56 41.84 122.286 42.992C123.011 44.144 123.928 44.72 125.038 44.72ZM148.748 45.04L152.588 44.08V3.12L148.748 2.16V1.2H157.068C160.908 1.2 162.828 3.12 162.828 6.96V44.08L166.668 45.04V46H148.748V45.04ZM177.538 59.76C175.618 59.76 174.124 59.248 173.058 58.224C171.991 57.2 171.458 55.792 171.458 54C171.458 52.3787 171.884 51.12 172.738 50.224C173.634 49.328 174.807 48.88 176.258 48.88C176.599 48.88 176.94 48.9013 177.282 48.944C177.623 49.0293 177.858 49.072 177.986 49.072L178.818 49.2V57.84C180.055 57.6267 181.143 56.944 182.082 55.792C183.02 54.64 184.066 52.656 185.218 49.84L186.498 46.64L169.858 15.92L166.657 14.96V14H174.658C176.876 14 178.626 14.4693 179.906 15.408C181.228 16.304 182.359 17.648 183.298 19.44L191.298 34.224L198.018 16.88L193.218 14.96V14H205.058V14.96L199.938 16.88L187.138 49.84C185.772 53.3387 184.322 55.856 182.786 57.392C181.25 58.9707 179.5 59.76 177.538 59.76ZM207.618 46.64C206.338 46.64 205.207 46.1707 204.226 45.232C203.287 44.2507 202.818 43.12 202.818 41.84C202.818 40.56 203.287 39.4507 204.226 38.512C205.207 37.5307 206.338 37.04 207.618 37.04C208.898 37.04 210.007 37.5307 210.946 38.512C211.927 39.4507 212.418 40.56 212.418 41.84C212.418 43.12 211.927 44.2507 210.946 45.232C210.007 46.1707 208.898 46.64 207.618 46.64Z" fill="white"/>
<path d="M1.2 45.04L1.07873 44.5549L0.7 44.6496V45.04H1.2ZM5.04 44.08L5.16127 44.5651L5.54 44.4704V44.08H5.04ZM5.04 3.12H5.54V2.72961L5.16127 2.63493L5.04 3.12ZM1.2 2.16H0.7V2.55038L1.07873 2.64507L1.2 2.16ZM1.2 1.2V0.699997H0.7V1.2H1.2ZM35.44 1.2H35.94V0.699997H35.44V1.2ZM35.44 12.72V13.22H35.94V12.72H35.44ZM33.52 12.72L33.2102 13.1124L33.3464 13.22H33.52V12.72ZM31.408 10.288L30.9778 10.5429L30.9809 10.548L31.408 10.288ZM29.36 2.8H29.86V2.3H29.36V2.8ZM15.6 2.8V2.3H15.1V2.8H15.6ZM15.6 22.96H15.1V23.46H15.6V22.96ZM22.96 22.96V23.46H23.3763L23.4517 23.0506L22.96 22.96ZM24.624 18.416L25.0573 18.6655L25.0614 18.6585L25.0652 18.6513L24.624 18.416ZM25.84 16.56V16.06H25.597L25.4468 16.2511L25.84 16.56ZM27.76 16.56H28.26V16.06H27.76V16.56ZM27.76 30.96V31.46H28.26V30.96H27.76ZM25.84 30.96L25.4468 31.2689L25.597 31.46H25.84V30.96ZM24.624 29.104L25.0652 28.8687L25.0614 28.8615L25.0573 28.8545L24.624 29.104ZM22.96 24.56L23.4517 24.4694L23.3763 24.06H22.96V24.56ZM15.6 24.56V24.06H15.1V24.56H15.6ZM15.6 44.4H15.1V44.9H15.6V44.4ZM30.64 44.4V44.9H31.14V44.4H30.64ZM32.688 36.912L32.2609 36.652L32.2579 36.6571L32.688 36.912ZM34.8 34.48V33.98H34.6264L34.4902 34.0876L34.8 34.48ZM36.72 34.48H37.22V33.98H36.72V34.48ZM36.72 46V46.5H37.22V46H36.72ZM1.2 46H0.7V46.5H1.2V46ZM1.32127 45.5251L5.16127 44.5651L4.91873 43.5949L1.07873 44.5549L1.32127 45.5251ZM5.54 44.08V3.12H4.54V44.08H5.54ZM5.16127 2.63493L1.32127 1.67492L1.07873 2.64507L4.91873 3.60507L5.16127 2.63493ZM1.7 2.16V1.2H0.7V2.16H1.7ZM1.2 1.7H35.44V0.699997H1.2V1.7ZM34.94 1.2V12.72H35.94V1.2H34.94ZM35.44 12.22H33.52V13.22H35.44V12.22ZM33.8298 12.3276C33.0708 11.7283 32.405 10.9643 31.8351 10.028L30.9809 10.548C31.6057 11.5744 32.3479 12.4317 33.2102 13.1124L33.8298 12.3276ZM31.8381 10.0331C30.5187 7.80656 29.86 5.39865 29.86 2.8H28.86C28.86 5.57734 29.5666 8.16144 30.9779 10.5429L31.8381 10.0331ZM29.36 2.3H15.6V3.3H29.36V2.3ZM15.1 2.8V22.96H16.1V2.8H15.1ZM15.6 23.46H22.96V22.46H15.6V23.46ZM23.4517 23.0506C23.7403 21.4843 24.2754 20.0235 25.0573 18.6655L24.1907 18.1665C23.3512 19.6245 22.7771 21.193 22.4683 22.8694L23.4517 23.0506ZM25.0652 18.6513C25.3921 18.0384 25.7811 17.4442 26.2332 16.8689L25.4468 16.2511C24.9602 16.8704 24.5386 17.5136 24.1828 18.1807L25.0652 18.6513ZM25.84 17.06H27.76V16.06H25.84V17.06ZM27.26 16.56V30.96H28.26V16.56H27.26ZM27.76 30.46H25.84V31.46H27.76V30.46ZM26.2332 30.6511C25.7811 30.0758 25.3921 29.4816 25.0652 28.8687L24.1828 29.3393C24.5386 30.0064 24.9602 30.6496 25.4468 31.2689L26.2332 30.6511ZM25.0573 28.8545C24.2754 27.4965 23.7403 26.0357 23.4517 24.4694L22.4683 24.6506C22.7771 26.327 23.3512 27.8955 24.1907 29.3535L25.0573 28.8545ZM22.96 24.06H15.6V25.06H22.96V24.06ZM15.1 24.56V44.4H16.1V24.56H15.1ZM15.6 44.9H30.64V43.9H15.6V44.9ZM31.14 44.4C31.14 41.8013 31.7987 39.3934 33.1181 37.1669L32.2579 36.6571C30.8466 39.0386 30.14 41.6227 30.14 44.4H31.14ZM33.1151 37.172C33.685 36.2357 34.3508 35.4717 35.1098 34.8724L34.4902 34.0876C33.6279 34.7683 32.8857 35.6256 32.2609 36.652L33.1151 37.172ZM34.8 34.98H36.72V33.98H34.8V34.98ZM36.22 34.48V46H37.22V34.48H36.22ZM36.72 45.5H1.2V46.5H36.72V45.5ZM1.7 46V45.04H0.7V46H1.7ZM39.89 45.04L39.7144 44.5718L39.39 44.6935V45.04H39.89ZM45.01 43.12L45.1856 43.5882L45.3176 43.5387L45.4043 43.4275L45.01 43.12ZM52.946 32.944L53.3403 33.2515L53.5571 32.9735L53.368 32.6759L52.946 32.944ZM42.13 15.92L42.552 15.6519L42.4521 15.4946L42.2737 15.4411L42.13 15.92ZM38.93 14.96H38.43V15.332L38.7863 15.4389L38.93 14.96ZM38.93 14V13.5H38.43V14H38.93ZM52.562 15.408L52.2662 15.8113L52.2753 15.8176L52.562 15.408ZM56.21 19.44L56.6331 19.1736L56.6306 19.1696L56.21 19.44ZM59.474 24.624L59.0509 24.8904L59.4311 25.4943L59.8689 24.9307L59.474 24.624ZM65.49 16.88L65.8849 17.1867L66.2922 16.6624L65.6757 16.4158L65.49 16.88ZM60.69 14.96H60.19V15.2985L60.5043 15.4242L60.69 14.96ZM60.69 14V13.5H60.19V14H60.69ZM72.85 14H73.35V13.5H72.85V14ZM72.85 14.96L73.0256 15.4282L73.35 15.3065V14.96H72.85ZM67.73 16.88L67.5544 16.4118L67.4234 16.461L67.3369 16.571L67.73 16.88ZM60.434 26.16L60.0409 25.851L59.8215 26.1301L60.0127 26.4293L60.434 26.16ZM71.89 44.08L71.4687 44.3493L71.5686 44.5056L71.7463 44.5589L71.89 44.08ZM75.09 45.04H75.59V44.668L75.2337 44.5611L75.09 45.04ZM75.09 46V46.5H75.59V46H75.09ZM57.81 40.56L58.2335 40.2941L58.2315 40.291L57.81 40.56ZM53.97 34.544L54.3915 34.275L54.0117 33.6801L53.5764 34.2356L53.97 34.544ZM47.25 43.12L46.8564 42.8116L46.4451 43.3366L47.0643 43.5842L47.25 43.12ZM52.05 45.04H52.55V44.7015L52.2357 44.5758L52.05 45.04ZM52.05 46V46.5H52.55V46H52.05ZM39.89 46H39.39V46.5H39.89V46ZM40.0656 45.5082L45.1856 43.5882L44.8344 42.6518L39.7144 44.5718L40.0656 45.5082ZM45.4043 43.4275L53.3403 33.2515L52.5517 32.6365L44.6157 42.8125L45.4043 43.4275ZM53.368 32.6759L42.552 15.6519L41.708 16.1881L52.524 33.2121L53.368 32.6759ZM42.2737 15.4411L39.0737 14.4811L38.7863 15.4389L41.9863 16.3989L42.2737 15.4411ZM39.43 14.96V14H38.43V14.96H39.43ZM38.93 14.5H47.57V13.5H38.93V14.5ZM47.57 14.5C49.5426 14.5 51.094 14.9515 52.2663 15.8112L52.8577 15.0048C51.47 13.9871 49.6934 13.5 47.57 13.5V14.5ZM52.2753 15.8176C53.4865 16.6655 54.6606 17.9544 55.7894 19.7104L56.6306 19.1696C55.4554 17.3416 54.1975 15.9425 52.8487 14.9984L52.2753 15.8176ZM55.7869 19.7064L59.0509 24.8904L59.8971 24.3576L56.6331 19.1736L55.7869 19.7064ZM59.8689 24.9307L65.8849 17.1867L65.0951 16.5733L59.0791 24.3173L59.8689 24.9307ZM65.6757 16.4158L60.8757 14.4958L60.5043 15.4242L65.3043 17.3442L65.6757 16.4158ZM61.19 14.96V14H60.19V14.96H61.19ZM60.69 14.5H72.85V13.5H60.69V14.5ZM72.35 14V14.96H73.35V14H72.35ZM72.6744 14.4918L67.5544 16.4118L67.9056 17.3482L73.0256 15.4282L72.6744 14.4918ZM67.3369 16.571L60.0409 25.851L60.8271 26.469L68.1231 17.189L67.3369 16.571ZM60.0127 26.4293L71.4687 44.3493L72.3113 43.8107L60.8553 25.8907L60.0127 26.4293ZM71.7463 44.5589L74.9463 45.5189L75.2337 44.5611L72.0337 43.6011L71.7463 44.5589ZM74.59 45.04V46H75.59V45.04H74.59ZM75.09 45.5H66.45V46.5H75.09V45.5ZM66.45 45.5C64.473 45.5 62.9181 45.0677 61.7447 44.2464L61.1713 45.0656C62.5579 46.0363 64.331 46.5 66.45 46.5V45.5ZM61.7447 44.2464C60.5362 43.4004 59.3627 42.0926 58.2334 40.2941L57.3866 40.8259C58.5613 42.6967 59.8198 44.1196 61.1713 45.0656L61.7447 44.2464ZM58.2315 40.291L54.3915 34.275L53.5485 34.813L57.3885 40.829L58.2315 40.291ZM53.5764 34.2356L46.8564 42.8116L47.6436 43.4284L54.3636 34.8524L53.5764 34.2356ZM47.0643 43.5842L51.8643 45.5042L52.2357 44.5758L47.4357 42.6558L47.0643 43.5842ZM51.55 45.04V46H52.55V45.04H51.55ZM52.05 45.5H39.89V46.5H52.05V45.5ZM40.39 46V45.04H39.39V46H40.39ZM80.604 42.48L80.2504 42.8336L80.253 42.8361L80.604 42.48ZM80.604 17.584L80.955 17.9401L80.9576 17.9376L80.604 17.584ZM102.172 15.088L101.886 15.4985L101.891 15.5013L102.172 15.088ZM98.588 24.752L98.4667 25.2371L98.4918 25.2433L98.5173 25.247L98.588 24.752ZM97.82 24.56H97.32V24.9504L97.6987 25.0451L97.82 24.56ZM97.82 14.96H98.32V14.6076L97.9882 14.4891L97.82 14.96ZM96.924 14.64L97.0922 14.169L97.0821 14.1657L96.924 14.64ZM88.924 17.776L88.4938 17.5211L88.4904 17.5271L88.924 17.776ZM88.924 41.968L88.4903 42.217L88.496 42.2264L88.924 41.968ZM99.228 44.208L99.4674 44.647L99.4719 44.6445L99.228 44.208ZM102.62 41.072L102.2 40.8009L102.198 40.8045L102.62 41.072ZM103.9 37.04V36.54H103.4V37.04H103.9ZM105.5 37.04H106V36.54H105.5V37.04ZM103.964 41.904L103.548 41.6266L103.548 41.6266L103.964 41.904ZM99.676 45.616L99.8955 46.0654L99.9037 46.0611L99.676 45.616ZM93.34 46.46C87.9711 46.46 83.8663 44.9942 80.955 42.1239L80.253 42.8361C83.4003 45.9391 87.7862 47.46 93.34 47.46V46.46ZM80.9576 42.1264C78.043 39.2119 76.56 35.1911 76.56 30H75.56C75.56 35.3902 77.1063 39.6894 80.2504 42.8336L80.9576 42.1264ZM76.56 30C76.56 24.8086 78.0431 20.811 80.955 17.94L80.253 17.2279C77.1062 20.3304 75.56 24.6101 75.56 30H76.56ZM80.9576 17.9376C83.8692 15.0259 87.973 13.54 93.34 13.54V12.54C87.7843 12.54 83.3975 14.0834 80.2504 17.2304L80.9576 17.9376ZM93.34 13.54C97.2228 13.54 100.046 14.2181 101.886 15.4985L102.458 14.6775C100.373 13.2273 97.3079 12.54 93.34 12.54V13.54ZM101.891 15.5013C103.796 16.7984 104.68 18.3226 104.68 20.08H105.68C105.68 17.9121 104.559 16.1082 102.453 14.6747L101.891 15.5013ZM104.68 20.08C104.68 21.4189 104.271 22.458 103.482 23.2464L104.19 23.9536C105.193 22.95 105.68 21.6424 105.68 20.08H104.68ZM103.482 23.2464C102.741 23.9875 101.727 24.38 100.38 24.38V25.38C101.935 25.38 103.224 24.9191 104.19 23.9536L103.482 23.2464ZM100.38 24.38C99.8066 24.38 99.2329 24.339 98.6587 24.257L98.5173 25.247C99.1378 25.3356 99.7588 25.38 100.38 25.38V24.38ZM98.7093 24.2669L97.9413 24.0749L97.6987 25.0451L98.4667 25.2371L98.7093 24.2669ZM98.32 24.56V14.96H97.32V24.56H98.32ZM97.9882 14.4891L97.0922 14.1691L96.7558 15.1109L97.6518 15.4309L97.9882 14.4891ZM97.0821 14.1657C96.3775 13.9308 95.5532 13.82 94.62 13.82V14.82C95.4788 14.82 96.1905 14.9225 96.7659 15.1143L97.0821 14.1657ZM94.62 13.82C91.9908 13.82 89.9382 15.0837 88.4939 17.5211L89.3541 18.0309C90.6404 15.8603 92.3852 14.82 94.62 14.82V13.82ZM88.4904 17.5271C87.0964 19.9552 86.44 24.1488 86.44 30H87.44C87.44 24.1605 88.1062 20.2048 89.3576 18.0249L88.4904 17.5271ZM86.44 30C86.44 35.6837 87.0972 39.79 88.4904 42.2169L89.3576 41.7191C88.1055 39.538 87.44 35.6656 87.44 30H86.44ZM88.496 42.2264C89.9424 44.6221 91.9954 45.86 94.62 45.86V44.86C92.3806 44.86 90.6363 43.8366 89.352 41.7096L88.496 42.2264ZM94.62 45.86C96.3644 45.86 97.9832 45.4565 99.4674 44.6469L98.9886 43.7691C97.6568 44.4955 96.2036 44.86 94.62 44.86V45.86ZM99.4719 44.6445C100.988 43.7972 102.183 42.6965 103.042 41.3395L102.198 40.8045C101.436 42.0075 100.369 42.9974 98.9841 43.7715L99.4719 44.6445ZM103.04 41.3431C103.937 39.9522 104.4 38.5155 104.4 37.04H103.4C103.4 38.2952 103.009 39.5464 102.2 40.8009L103.04 41.3431ZM103.9 37.54H105.5V36.54H103.9V37.54ZM105 37.04C105 38.6398 104.522 40.1658 103.548 41.6266L104.38 42.1813C105.454 40.5702 106 38.8535 106 37.04H105ZM103.548 41.6266C102.577 43.0836 101.216 44.2665 99.4483 45.1709L99.9037 46.0611C101.805 45.0882 103.303 43.7964 104.38 42.1813L103.548 41.6266ZM99.4566 45.1667C97.701 46.0241 95.6662 46.46 93.34 46.46V47.46C95.7925 47.46 97.9817 46.9999 99.8954 46.0653L99.4566 45.1667ZM113.71 44.528L113.399 44.92L113.399 44.92L113.71 44.528ZM111.726 33.392L112.182 33.5962L112.187 33.5848L112.192 33.5732L111.726 33.392ZM112.878 31.28L112.759 30.7942L112.582 30.8374L112.474 30.9843L112.878 31.28ZM118.574 30.128L118.491 29.6348L118.491 29.6348L118.574 30.128ZM130.798 28.72L130.822 29.2194L131.298 29.1965V28.72H130.798ZM129.07 17.008L129.49 16.7376L129.49 16.7376L129.07 17.008ZM121.454 14.64L121.295 14.1656L121.285 14.1691L121.454 14.64ZM120.558 14.96L120.389 14.4891L120.058 14.6076V14.96H120.558ZM120.558 24.56L120.67 25.0472L121.058 24.9578V24.56H120.558ZM119.726 24.752L119.788 25.2481L119.813 25.245L119.838 25.2392L119.726 24.752ZM114.478 23.6L114.115 23.9448L114.124 23.9537L114.133 23.9621L114.478 23.6ZM116.142 15.088L115.86 14.6747L115.856 14.6775L116.142 15.088ZM133.614 14.832L133.39 15.2793L133.399 15.2839L133.614 14.832ZM139.118 19.696L138.687 19.9507L138.694 19.961L139.118 19.696ZM141.038 44.08H140.538V44.4704L140.916 44.5651L141.038 44.08ZM144.878 45.04H145.378V44.6496L144.999 44.5549L144.878 45.04ZM144.878 46V46.5H145.378V46H144.878ZM133.166 43.632L133.539 43.2991L133.531 43.2908L133.166 43.632ZM131.758 41.2L132.23 41.0357L131.864 39.9856L131.321 40.9557L131.758 41.2ZM129.646 44.08L129.999 44.4337L130.008 44.4244L129.646 44.08ZM129.326 42.16L129.726 42.46L129.729 42.4557L129.326 42.16ZM130.798 39.6L131.248 39.8164L131.298 39.7138V39.6H130.798ZM130.798 30.32H131.298V29.82H130.798V30.32ZM125.166 30.64L125.106 30.1435L125.102 30.1441L125.166 30.64ZM122.478 30.96L122.432 30.4621L122.143 30.4884L122.022 30.7531L122.478 30.96ZM121.838 32.88L122.321 33.0072L122.321 33.0072L121.838 32.88ZM122.286 42.992L122.709 42.7256L122.709 42.7256L122.286 42.992ZM122.478 46.46C118.743 46.46 115.947 45.6618 114.02 44.136L113.399 44.92C115.568 46.6368 118.617 47.46 122.478 47.46V46.46ZM114.02 44.136C112.086 42.6053 111.138 40.678 111.138 38.32H110.138C110.138 40.9967 111.237 43.208 113.399 44.92L114.02 44.136ZM111.138 38.32C111.138 36.731 111.483 35.1577 112.182 33.5962L111.269 33.1878C110.517 34.869 110.138 36.581 110.138 38.32H111.138ZM112.192 33.5732C112.475 32.8444 112.838 32.1791 113.281 31.5757L112.474 30.9843C111.978 31.6609 111.573 32.4036 111.259 33.2108L112.192 33.5732ZM112.996 31.7658C114.732 31.3424 116.618 30.9608 118.656 30.6212L118.491 29.6348C116.433 29.9779 114.522 30.3642 112.759 30.7942L112.996 31.7658ZM118.656 30.6212C123.25 29.8555 127.305 29.3889 130.822 29.2194L130.773 28.2206C127.208 28.3924 123.113 28.8645 118.491 29.6348L118.656 30.6212ZM131.298 28.72V26.8H130.298V28.72H131.298ZM131.298 26.8C131.298 24.4141 131.153 22.3831 130.858 20.7131C130.564 19.0482 130.116 17.7117 129.49 16.7376L128.649 17.2784C129.175 18.0963 129.591 19.2878 129.873 20.8869C130.154 22.4809 130.298 24.4499 130.298 26.8H131.298ZM129.49 16.7376C128.234 14.7831 126.293 13.82 123.758 13.82V14.82C126.001 14.82 127.601 15.6489 128.649 17.2784L129.49 16.7376ZM123.758 13.82C122.824 13.82 122 13.9308 121.295 14.1657L121.612 15.1143C122.187 14.9225 122.899 14.82 123.758 14.82V13.82ZM121.285 14.1691L120.389 14.4891L120.726 15.4309L121.622 15.1109L121.285 14.1691ZM120.058 14.96V24.56H121.058V14.96H120.058ZM120.445 24.0728L119.613 24.2648L119.838 25.2392L120.67 25.0472L120.445 24.0728ZM119.663 24.2559C118.993 24.3397 118.439 24.38 117.998 24.38V25.38C118.495 25.38 119.093 25.335 119.788 25.2481L119.663 24.2559ZM117.998 24.38C116.652 24.38 115.61 23.9876 114.822 23.2379L114.133 23.9621C115.137 24.919 116.442 25.38 117.998 25.38V24.38ZM114.84 23.2552C114.09 22.468 113.698 21.426 113.698 20.08H112.698C112.698 21.6354 113.158 22.94 114.115 23.9448L114.84 23.2552ZM113.698 20.08C113.698 18.3177 114.565 16.7934 116.427 15.4985L115.856 14.6775C113.792 16.1132 112.698 17.9169 112.698 20.08H113.698ZM116.423 15.5013C118.308 14.2176 121.156 13.54 125.038 13.54V12.54C121.068 12.54 117.985 13.2278 115.86 14.6747L116.423 15.5013ZM125.038 13.54C128.307 13.54 131.085 14.1267 133.39 15.2792L133.837 14.3848C131.363 13.1479 128.424 12.54 125.038 12.54V13.54ZM133.399 15.2839C135.751 16.398 137.506 17.955 138.687 19.9507L139.548 19.4413C138.254 17.2557 136.34 15.57 133.828 14.3801L133.399 15.2839ZM138.694 19.961C139.918 21.9208 140.538 24.1948 140.538 26.8H141.538C141.538 24.0292 140.877 21.5672 139.542 19.431L138.694 19.961ZM140.538 26.8V44.08H141.538V26.8H140.538ZM140.916 44.5651L144.756 45.5251L144.999 44.5549L141.159 43.5949L140.916 44.5651ZM144.378 45.04V46H145.378V45.04H144.378ZM144.878 45.5H139.118V46.5H144.878V45.5ZM139.118 45.5C136.667 45.5 134.832 44.7494 133.539 43.2992L132.792 43.9648C134.315 45.6719 136.448 46.5 139.118 46.5V45.5ZM133.531 43.2908C132.989 42.7103 132.552 41.9634 132.23 41.0357L131.285 41.3643C131.645 42.3992 132.147 43.2737 132.8 43.9732L133.531 43.2908ZM131.321 40.9557C130.743 41.9875 130.064 42.9136 129.283 43.7356L130.008 44.4244C130.848 43.5397 131.577 42.5459 132.194 41.4443L131.321 40.9557ZM129.292 43.7264C127.471 45.5473 125.211 46.46 122.478 46.46V47.46C125.461 47.46 127.98 46.4527 129.999 44.4336L129.292 43.7264ZM125.038 45.22C126.825 45.22 128.387 44.2448 129.726 42.46L128.926 41.86C127.704 43.4885 126.407 44.22 125.038 44.22V45.22ZM129.729 42.4557C130.223 41.7819 130.729 40.8987 131.248 39.8164L130.347 39.3836C129.842 40.4346 129.367 41.2581 128.922 41.8643L129.729 42.4557ZM131.298 39.6V30.32H130.298V39.6H131.298ZM130.798 29.82C128.817 29.82 126.92 29.9276 125.106 30.1435L125.225 31.1365C126.995 30.9257 128.853 30.82 130.798 30.82V29.82ZM125.102 30.1441C123.778 30.3149 122.891 30.4204 122.432 30.4621L122.523 31.4579C123.003 31.4143 123.908 31.3064 125.229 31.1359L125.102 30.1441ZM122.022 30.7531C121.792 31.259 121.571 31.9294 121.354 32.7528L122.321 33.0072C122.531 32.2092 122.736 31.5997 122.933 31.1669L122.022 30.7531ZM121.354 32.7528C120.917 34.4131 120.698 36.0558 120.698 37.68H121.698C121.698 36.1469 121.905 34.5896 122.321 33.0072L121.354 32.7528ZM120.698 37.68C120.698 40.1014 121.062 41.9867 121.862 43.2584L122.709 42.7256C122.059 41.6933 121.698 40.0373 121.698 37.68H120.698ZM121.862 43.2584C122.655 44.5177 123.716 45.22 125.038 45.22V44.22C124.141 44.22 123.366 43.7703 122.709 42.7256L121.862 43.2584ZM148.748 45.04L148.626 44.5549L148.248 44.6496V45.04H148.748ZM152.588 44.08L152.709 44.5651L153.088 44.4704V44.08H152.588ZM152.588 3.12H153.088V2.72961L152.709 2.63493L152.588 3.12ZM148.748 2.16H148.248V2.55038L148.626 2.64507L148.748 2.16ZM148.748 1.2V0.699997H148.248V1.2H148.748ZM162.828 44.08H162.328V44.4704L162.706 44.5651L162.828 44.08ZM166.668 45.04H167.168V44.6496L166.789 44.5549L166.668 45.04ZM166.668 46V46.5H167.168V46H166.668ZM148.748 46H148.248V46.5H148.748V46ZM148.869 45.5251L152.709 44.5651L152.466 43.5949L148.626 44.5549L148.869 45.5251ZM153.088 44.08V3.12H152.088V44.08H153.088ZM152.709 2.63493L148.869 1.67492L148.626 2.64507L152.466 3.60507L152.709 2.63493ZM149.248 2.16V1.2H148.248V2.16H149.248ZM148.748 1.7H157.068V0.699997H148.748V1.7ZM157.068 1.7C158.91 1.7 160.201 2.16039 161.034 2.99355C161.867 3.82671 162.328 5.11707 162.328 6.96H163.328C163.328 4.96293 162.828 3.37328 161.741 2.28644C160.654 1.1996 159.065 0.699997 157.068 0.699997V1.7ZM162.328 6.96V44.08H163.328V6.96H162.328ZM162.706 44.5651L166.546 45.5251L166.789 44.5549L162.949 43.5949L162.706 44.5651ZM166.168 45.04V46H167.168V45.04H166.168ZM166.668 45.5H148.748V46.5H166.668V45.5ZM149.248 46V45.04H148.248V46H149.248ZM173.058 58.224L172.711 58.5847L172.711 58.5847L173.058 58.224ZM172.738 50.224L172.384 49.8703L172.375 49.8792L172.738 50.224ZM177.282 48.944L177.403 48.4589L177.373 48.4516L177.344 48.4479L177.282 48.944ZM177.986 49.072L178.062 48.5778L178.024 48.572H177.986V49.072ZM178.818 49.2H179.318V48.771L178.894 48.7058L178.818 49.2ZM178.818 57.84H178.318V58.4336L178.902 58.3327L178.818 57.84ZM182.082 55.792L182.469 56.1078L182.469 56.1078L182.082 55.792ZM185.218 49.84L185.68 50.0293L185.682 50.0257L185.218 49.84ZM186.498 46.64L186.962 46.8257L187.049 46.608L186.937 46.4019L186.498 46.64ZM169.858 15.92L170.297 15.6819L170.199 15.5004L170.001 15.4411L169.858 15.92ZM166.657 14.96H166.157V15.332L166.514 15.4389L166.657 14.96ZM166.657 14V13.5H166.157V14H166.657ZM179.906 15.408L179.61 15.8112L179.617 15.8167L179.625 15.822L179.906 15.408ZM183.298 19.44L182.855 19.672L182.858 19.678L183.298 19.44ZM191.298 34.224L190.858 34.462L191.373 35.4137L191.764 34.4046L191.298 34.224ZM198.018 16.88L198.484 17.0606L198.662 16.5994L198.203 16.4158L198.018 16.88ZM193.218 14.96H192.718V15.2985L193.032 15.4242L193.218 14.96ZM193.218 14V13.5H192.718V14H193.218ZM205.058 14H205.558V13.5H205.058V14ZM205.058 14.96L205.233 15.4282L205.558 15.3065V14.96H205.058ZM199.938 16.88L199.762 16.4118L199.552 16.4904L199.471 16.699L199.938 16.88ZM187.138 49.84L187.603 50.0218L187.604 50.021L187.138 49.84ZM182.786 57.392L182.432 57.0384L182.427 57.0433L182.786 57.392ZM177.538 59.26C175.707 59.26 174.352 58.7736 173.404 57.8633L172.711 58.5847C173.896 59.7224 175.528 60.26 177.538 60.26V59.26ZM173.404 57.8633C172.456 56.9531 171.958 55.6868 171.958 54H170.958C170.958 55.8972 171.526 57.4469 172.711 58.5847L173.404 57.8633ZM171.958 54C171.958 52.4659 172.36 51.3458 173.1 50.5688L172.375 49.8792C171.409 50.8942 170.958 52.2914 170.958 54H171.958ZM173.091 50.5776C173.88 49.7891 174.919 49.38 176.258 49.38V48.38C174.695 48.38 173.388 48.8669 172.384 49.8704L173.091 50.5776ZM176.258 49.38C176.578 49.38 176.899 49.4 177.219 49.4401L177.344 48.4479C176.982 48.4026 176.62 48.38 176.258 48.38V49.38ZM177.16 49.4291C177.495 49.5128 177.787 49.572 177.986 49.572V48.572C177.928 48.572 177.751 48.5459 177.403 48.4589L177.16 49.4291ZM177.909 49.5662L178.741 49.6942L178.894 48.7058L178.062 48.5778L177.909 49.5662ZM178.318 49.2V57.84H179.318V49.2H178.318ZM178.902 58.3327C180.28 58.0952 181.469 57.3353 182.469 56.1078L181.694 55.4762C180.817 56.5527 179.83 57.1581 178.733 57.3473L178.902 58.3327ZM182.469 56.1078C183.457 54.8955 184.525 52.8536 185.68 50.0293L184.755 49.6507C183.606 52.4584 182.583 54.3845 181.694 55.4762L182.469 56.1078ZM185.682 50.0257L186.962 46.8257L186.033 46.4543L184.753 49.6543L185.682 50.0257ZM186.937 46.4019L170.297 15.6819L169.418 16.1581L186.058 46.8781L186.937 46.4019ZM170.001 15.4411L166.801 14.4811L166.514 15.4389L169.714 16.3989L170.001 15.4411ZM167.157 14.96V14H166.157V14.96H167.157ZM166.657 14.5H174.658V13.5H166.657V14.5ZM174.658 14.5C176.811 14.5 178.444 14.9561 179.61 15.8112L180.201 15.0048C178.807 13.9826 176.941 13.5 174.658 13.5V14.5ZM179.625 15.822C180.864 16.6609 181.944 17.9341 182.855 19.672L183.74 19.208C182.773 17.3619 181.593 15.9471 180.186 14.994L179.625 15.822ZM182.858 19.678L190.858 34.462L191.737 33.986L183.737 19.202L182.858 19.678ZM191.764 34.4046L198.484 17.0606L197.551 16.6994L190.831 34.0434L191.764 34.4046ZM198.203 16.4158L193.403 14.4958L193.032 15.4242L197.832 17.3442L198.203 16.4158ZM193.718 14.96V14H192.718V14.96H193.718ZM193.218 14.5H205.058V13.5H193.218V14.5ZM204.558 14V14.96H205.558V14H204.558ZM204.882 14.4918L199.762 16.4118L200.113 17.3482L205.233 15.4282L204.882 14.4918ZM199.471 16.699L186.671 49.659L187.604 50.021L200.404 17.061L199.471 16.699ZM186.672 49.6582C185.316 53.1327 183.896 55.5747 182.432 57.0384L183.139 57.7456C184.747 56.1373 186.229 53.5446 187.603 50.0218L186.672 49.6582ZM182.427 57.0433C180.973 58.5382 179.348 59.26 177.538 59.26V60.26C179.652 60.26 181.526 59.4031 183.144 57.7407L182.427 57.0433ZM204.226 45.232L203.864 45.5776L203.872 45.5856L203.88 45.5933L204.226 45.232ZM204.226 38.512L203.872 38.1584L203.872 38.1584L204.226 38.512ZM210.946 38.512L210.584 38.8576L210.592 38.8656L210.6 38.8733L210.946 38.512ZM210.946 45.232L210.592 44.8784L210.592 44.8784L210.946 45.232ZM207.618 46.14C206.475 46.14 205.466 45.7263 204.571 44.8707L203.88 45.5933C204.948 46.615 206.2 47.14 207.618 47.14V46.14ZM204.587 44.8864C203.731 43.9919 203.318 42.9828 203.318 41.84H202.318C202.318 43.2572 202.842 44.5095 203.864 45.5776L204.587 44.8864ZM203.318 41.84C203.318 40.698 203.73 39.7143 204.579 38.8656L203.872 38.1584C202.843 39.187 202.318 40.422 202.318 41.84H203.318ZM204.579 38.8656C205.475 37.9693 206.482 37.54 207.618 37.54V36.54C206.193 36.54 204.938 37.0921 203.872 38.1584L204.579 38.8656ZM207.618 37.54C208.752 37.54 209.733 37.9682 210.584 38.8576L211.307 38.1664C210.28 37.0932 209.043 36.54 207.618 36.54V37.54ZM210.6 38.8733C211.489 39.7241 211.918 40.7055 211.918 41.84H212.918C212.918 40.4145 212.364 39.1772 211.291 38.1507L210.6 38.8733ZM211.918 41.84C211.918 42.9756 211.488 43.9822 210.592 44.8784L211.299 45.5856C212.365 44.5192 212.918 43.2644 212.918 41.84H211.918ZM210.592 44.8784C209.743 45.7272 208.759 46.14 207.618 46.14V47.14C209.036 47.14 210.271 46.6141 211.299 45.5856L210.592 44.8784Z" fill="white"/>
</svg>
