<svg width="161" height="46" viewBox="0 0 161 46" fill="none" xmlns="http://www.w3.org/2000/svg">
<path d="M1.4 34.28L4.28 33.56V2.84L1.4 2.12V1.4H27.08V10.04H25.64C25.032 9.56 24.504 8.952 24.056 8.216C23.032 6.488 22.52 4.616 22.52 2.6H12.2V17.72H17.72C17.944 16.504 18.36 15.368 18.968 14.312C19.224 13.832 19.528 13.368 19.88 12.92H21.32V23.72H19.88C19.528 23.272 19.224 22.808 18.968 22.328C18.36 21.272 17.944 20.136 17.72 18.92H12.2V33.8H23.48C23.48 31.784 23.992 29.912 25.016 28.184C25.464 27.448 25.992 26.84 26.6 26.36H28.04V35H1.4V34.28ZM30.4175 34.28L34.2575 32.84L40.2095 25.208L32.0975 12.44L29.6975 11.72V11H36.1775C37.7135 11 38.9615 11.352 39.9215 12.056C40.8815 12.728 41.7935 13.736 42.6575 15.08L45.1055 18.968L49.6175 13.16L46.0175 11.72V11H55.1375V11.72L51.2975 13.16L45.8255 20.12L54.4175 33.56L56.8175 34.28V35H50.3375C48.8015 35 47.5535 34.664 46.5935 33.992C45.6335 33.32 44.7215 32.296 43.8575 30.92L40.9775 26.408L35.9375 32.84L39.5375 34.28V35H30.4175V34.28ZM70.505 35.72C66.409 35.72 63.225 34.6 60.953 32.36C58.681 30.088 57.545 26.968 57.545 23C57.545 19.032 58.681 15.928 60.953 13.688C63.225 11.416 66.409 10.28 70.505 10.28C73.449 10.28 75.657 10.792 77.129 11.816C78.633 12.84 79.385 14.088 79.385 15.56C79.385 16.648 79.049 17.528 78.377 18.2C77.737 18.84 76.873 19.16 75.785 19.16C75.337 19.16 74.889 19.128 74.441 19.064L73.865 18.92V11.72L73.193 11.48C72.713 11.32 72.137 11.24 71.465 11.24C69.641 11.24 68.217 12.104 67.193 13.832C66.201 15.56 65.705 18.616 65.705 23C65.705 27.256 66.201 30.248 67.193 31.976C68.217 33.672 69.641 34.52 71.465 34.52C72.713 34.52 73.865 34.232 74.921 33.656C76.009 33.048 76.857 32.264 77.465 31.304C78.105 30.312 78.425 29.304 78.425 28.28H79.625C79.625 29.56 79.241 30.776 78.473 31.928C77.705 33.08 76.633 34.008 75.257 34.712C73.881 35.384 72.297 35.72 70.505 35.72ZM92.3581 35.72C89.5101 35.72 87.3181 35.112 85.7821 33.896C84.2461 32.68 83.4781 31.128 83.4781 29.24C83.4781 27.992 83.7501 26.76 84.2941 25.544C84.5181 24.968 84.8061 24.44 85.1581 23.96C86.4701 23.64 87.8941 23.352 89.4301 23.096C92.8861 22.52 95.9421 22.168 98.5981 22.04V20.6C98.5981 17.048 98.1661 14.6 97.3021 13.256C96.4381 11.912 95.1101 11.24 93.3181 11.24C92.6461 11.24 92.0701 11.32 91.5901 11.48L90.9181 11.72V18.92L90.2941 19.064C89.7821 19.128 89.3501 19.16 88.9981 19.16C87.9101 19.16 87.0301 18.84 86.3581 18.2C85.7181 17.528 85.3981 16.648 85.3981 15.56C85.3981 14.088 86.1341 12.84 87.6061 11.816C89.1101 10.792 91.3341 10.28 94.2781 10.28C96.7741 10.28 98.9181 10.728 100.71 11.624C102.534 12.488 103.91 13.704 104.838 15.272C105.798 16.808 106.278 18.584 106.278 20.6V33.56L109.158 34.28V35H104.838C102.918 35 101.43 34.408 100.374 33.224C99.9261 32.744 99.5741 32.136 99.3181 31.4C98.8701 32.2 98.3421 32.92 97.7341 33.56C96.2941 35 94.5021 35.72 92.3581 35.72ZM94.2781 34.04C95.4621 34.04 96.5341 33.4 97.4941 32.12C97.8461 31.64 98.2141 31 98.5981 30.2V23.24C97.1261 23.24 95.7181 23.32 94.3741 23.48C93.3821 23.608 92.7101 23.688 92.3581 23.72C92.1981 24.072 92.0381 24.552 91.8781 25.16C91.5581 26.376 91.3981 27.576 91.3981 28.76C91.3981 30.552 91.6701 31.88 92.2141 32.744C92.7581 33.608 93.4461 34.04 94.2781 34.04ZM112.061 34.28L114.941 33.56V2.84L112.061 2.12V1.4H118.301C121.181 1.4 122.621 2.84 122.621 5.72V33.56L125.501 34.28V35H112.061V34.28ZM133.653 45.32C132.213 45.32 131.093 44.936 130.293 44.168C129.493 43.4 129.093 42.344 129.093 41C129.093 39.784 129.413 38.84 130.053 38.168C130.725 37.496 131.605 37.16 132.693 37.16C132.949 37.16 133.205 37.176 133.461 37.208C133.717 37.272 133.893 37.304 133.989 37.304L134.613 37.4V43.88C135.541 43.72 136.357 43.208 137.061 42.344C137.765 41.48 138.549 39.992 139.413 37.88L140.373 35.48L127.893 12.44L125.493 11.72V11H131.493C133.157 11 134.469 11.352 135.429 12.056C136.421 12.728 137.269 13.736 137.973 15.08L143.973 26.168L149.013 13.16L145.413 11.72V11H154.293V11.72L150.453 13.16L140.853 37.88C139.829 40.504 138.741 42.392 137.589 43.544C136.437 44.728 135.125 45.32 133.653 45.32ZM156.213 35.48C155.253 35.48 154.405 35.128 153.669 34.424C152.965 33.688 152.613 32.84 152.613 31.88C152.613 30.92 152.965 30.088 153.669 29.384C154.405 28.648 155.253 28.28 156.213 28.28C157.173 28.28 158.005 28.648 158.709 29.384C159.445 30.088 159.813 30.92 159.813 31.88C159.813 32.84 159.445 33.688 158.709 34.424C158.005 35.128 157.173 35.48 156.213 35.48Z" fill="white"/>
<path d="M1.4 34.28L1.27873 33.7949L0.9 33.8896V34.28H1.4ZM4.28 33.56L4.40127 34.0451L4.78 33.9504V33.56H4.28ZM4.28 2.84H4.78V2.44961L4.40127 2.35493L4.28 2.84ZM1.4 2.12H0.9V2.51038L1.27873 2.60507L1.4 2.12ZM1.4 1.4V0.899998H0.9V1.4H1.4ZM27.08 1.4H27.58V0.899998H27.08V1.4ZM27.08 10.04V10.54H27.58V10.04H27.08ZM25.64 10.04L25.3302 10.4324L25.4664 10.54H25.64V10.04ZM24.056 8.216L23.6258 8.47092L23.6289 8.47597L24.056 8.216ZM22.52 2.6H23.02V2.1H22.52V2.6ZM12.2 2.6V2.1H11.7V2.6H12.2ZM12.2 17.72H11.7V18.22H12.2V17.72ZM17.72 17.72V18.22H18.1363L18.2117 17.8106L17.72 17.72ZM18.968 14.312L19.4013 14.5615L19.4054 14.5545L19.4092 14.5473L18.968 14.312ZM19.88 12.92V12.42H19.637L19.4868 12.6111L19.88 12.92ZM21.32 12.92H21.82V12.42H21.32V12.92ZM21.32 23.72V24.22H21.82V23.72H21.32ZM19.88 23.72L19.4868 24.0289L19.637 24.22H19.88V23.72ZM18.968 22.328L19.4092 22.0927L19.4054 22.0855L19.4013 22.0785L18.968 22.328ZM17.72 18.92L18.2117 18.8294L18.1363 18.42H17.72V18.92ZM12.2 18.92V18.42H11.7V18.92H12.2ZM12.2 33.8H11.7V34.3H12.2V33.8ZM23.48 33.8V34.3H23.98V33.8H23.48ZM25.016 28.184L24.5889 27.924L24.5859 27.9291L25.016 28.184ZM26.6 26.36V25.86H26.4264L26.2902 25.9676L26.6 26.36ZM28.04 26.36H28.54V25.86H28.04V26.36ZM28.04 35V35.5H28.54V35H28.04ZM1.4 35H0.9V35.5H1.4V35ZM1.52127 34.7651L4.40127 34.0451L4.15873 33.0749L1.27873 33.7949L1.52127 34.7651ZM4.78 33.56V2.84H3.78V33.56H4.78ZM4.40127 2.35493L1.52127 1.63493L1.27873 2.60507L4.15873 3.32507L4.40127 2.35493ZM1.9 2.12V1.4H0.9V2.12H1.9ZM1.4 1.9H27.08V0.899998H1.4V1.9ZM26.58 1.4V10.04H27.58V1.4H26.58ZM27.08 9.54H25.64V10.54H27.08V9.54ZM25.9498 9.64756C25.3934 9.20829 24.9036 8.64693 24.4831 7.95603L23.6289 8.47597C24.1044 9.25707 24.6706 9.9117 25.3302 10.4324L25.9498 9.64756ZM24.4861 7.9611C23.508 6.31056 23.02 4.52665 23.02 2.6H22.02C22.02 4.70535 22.556 6.66544 23.6259 8.4709L24.4861 7.9611ZM22.52 2.1H12.2V3.1H22.52V2.1ZM11.7 2.6V17.72H12.7V2.6H11.7ZM12.2 18.22H17.72V17.22H12.2V18.22ZM18.2117 17.8106C18.4256 16.6496 18.8221 15.5675 19.4013 14.5615L18.5347 14.0625C17.8979 15.1685 17.4624 16.3584 17.2283 17.6294L18.2117 17.8106ZM19.4092 14.5473C19.6507 14.0944 19.9384 13.6549 20.2732 13.2289L19.4868 12.6111C19.1176 13.0811 18.7973 13.5696 18.5268 14.0767L19.4092 14.5473ZM19.88 13.42H21.32V12.42H19.88V13.42ZM20.82 12.92V23.72H21.82V12.92H20.82ZM21.32 23.22H19.88V24.22H21.32V23.22ZM20.2732 23.4111C19.9384 22.9851 19.6507 22.5456 19.4092 22.0927L18.5268 22.5633C18.7973 23.0704 19.1176 23.5589 19.4868 24.0289L20.2732 23.4111ZM19.4013 22.0785C18.8221 21.0725 18.4256 19.9904 18.2117 18.8294L17.2283 19.0106C17.4624 20.2816 17.8979 21.4715 18.5347 22.5775L19.4013 22.0785ZM17.72 18.42H12.2V19.42H17.72V18.42ZM11.7 18.92V33.8H12.7V18.92H11.7ZM12.2 34.3H23.48V33.3H12.2V34.3ZM23.98 33.8C23.98 31.8733 24.4681 30.0894 25.4461 28.4389L24.5859 27.9291C23.516 29.7346 22.98 31.6947 22.98 33.8H23.98ZM25.4431 28.444C25.8636 27.7531 26.3534 27.1917 26.9098 26.7524L26.2902 25.9676C25.6306 26.4883 25.0644 27.1429 24.5889 27.924L25.4431 28.444ZM26.6 26.86H28.04V25.86H26.6V26.86ZM27.54 26.36V35H28.54V26.36H27.54ZM28.04 34.5H1.4V35.5H28.04V34.5ZM1.9 35V34.28H0.9V35H1.9ZM30.4175 34.28L30.2419 33.8118L29.9175 33.9335V34.28H30.4175ZM34.2575 32.84L34.4331 33.3082L34.5651 33.2587L34.6518 33.1475L34.2575 32.84ZM40.2095 25.208L40.6038 25.5155L40.8206 25.2375L40.6315 24.9399L40.2095 25.208ZM32.0975 12.44L32.5195 12.1719L32.4196 12.0146L32.2412 11.9611L32.0975 12.44ZM29.6975 11.72H29.1975V12.092L29.5538 12.1989L29.6975 11.72ZM29.6975 11V10.5H29.1975V11H29.6975ZM39.9215 12.056L39.6257 12.4593L39.6348 12.4656L39.9215 12.056ZM42.6575 15.08L43.0806 14.8136L43.0781 14.8096L42.6575 15.08ZM45.1055 18.968L44.6824 19.2344L45.0626 19.8383L45.5004 19.2747L45.1055 18.968ZM49.6175 13.16L50.0124 13.4667L50.4197 12.9424L49.8032 12.6958L49.6175 13.16ZM46.0175 11.72H45.5175V12.0585L45.8318 12.1842L46.0175 11.72ZM46.0175 11V10.5H45.5175V11H46.0175ZM55.1375 11H55.6375V10.5H55.1375V11ZM55.1375 11.72L55.3131 12.1882L55.6375 12.0665V11.72H55.1375ZM51.2975 13.16L51.1219 12.6918L50.9909 12.741L50.9044 12.851L51.2975 13.16ZM45.8255 20.12L45.4324 19.811L45.213 20.0901L45.4042 20.3893L45.8255 20.12ZM54.4175 33.56L53.9962 33.8293L54.0961 33.9856L54.2738 34.0389L54.4175 33.56ZM56.8175 34.28H57.3175V33.908L56.9612 33.8011L56.8175 34.28ZM56.8175 35V35.5H57.3175V35H56.8175ZM43.8575 30.92L44.281 30.6541L44.279 30.651L43.8575 30.92ZM40.9775 26.408L41.399 26.139L41.0192 25.5441L40.5839 26.0996L40.9775 26.408ZM35.9375 32.84L35.5439 32.5316L35.1326 33.0566L35.7518 33.3042L35.9375 32.84ZM39.5375 34.28H40.0375V33.9415L39.7232 33.8158L39.5375 34.28ZM39.5375 35V35.5H40.0375V35H39.5375ZM30.4175 35H29.9175V35.5H30.4175V35ZM30.5931 34.7482L34.4331 33.3082L34.0819 32.3718L30.2419 33.8118L30.5931 34.7482ZM34.6518 33.1475L40.6038 25.5155L39.8152 24.9005L33.8632 32.5325L34.6518 33.1475ZM40.6315 24.9399L32.5195 12.1719L31.6755 12.7081L39.7875 25.4761L40.6315 24.9399ZM32.2412 11.9611L29.8412 11.2411L29.5538 12.1989L31.9538 12.9189L32.2412 11.9611ZM30.1975 11.72V11H29.1975V11.72H30.1975ZM29.6975 11.5H36.1775V10.5H29.6975V11.5ZM36.1775 11.5C37.6381 11.5 38.7735 11.8342 39.6258 12.4592L40.2172 11.6528C39.1495 10.8698 37.7889 10.5 36.1775 10.5V11.5ZM39.6348 12.4656C40.526 13.0895 41.3961 14.0424 42.2369 15.3504L43.0781 14.8096C42.1909 13.4296 41.237 12.3665 40.2082 11.6464L39.6348 12.4656ZM42.2344 15.3464L44.6824 19.2344L45.5286 18.7016L43.0806 14.8136L42.2344 15.3464ZM45.5004 19.2747L50.0124 13.4667L49.2226 12.8533L44.7106 18.6613L45.5004 19.2747ZM49.8032 12.6958L46.2032 11.2558L45.8318 12.1842L49.4318 13.6242L49.8032 12.6958ZM46.5175 11.72V11H45.5175V11.72H46.5175ZM46.0175 11.5H55.1375V10.5H46.0175V11.5ZM54.6375 11V11.72H55.6375V11H54.6375ZM54.9619 11.2518L51.1219 12.6918L51.4731 13.6282L55.3131 12.1882L54.9619 11.2518ZM50.9044 12.851L45.4324 19.811L46.2186 20.429L51.6906 13.469L50.9044 12.851ZM45.4042 20.3893L53.9962 33.8293L54.8388 33.2907L46.2468 19.8507L45.4042 20.3893ZM54.2738 34.0389L56.6738 34.7589L56.9612 33.8011L54.5612 33.0811L54.2738 34.0389ZM56.3175 34.28V35H57.3175V34.28H56.3175ZM56.8175 34.5H50.3375V35.5H56.8175V34.5ZM50.3375 34.5C48.8725 34.5 47.7336 34.1797 46.8802 33.5824L46.3068 34.4016C47.3734 35.1483 48.7305 35.5 50.3375 35.5V34.5ZM46.8802 33.5824C45.9917 32.9604 45.1222 31.994 44.2809 30.6541L43.4341 31.1859C44.3208 32.598 45.2753 33.6796 46.3068 34.4016L46.8802 33.5824ZM44.279 30.651L41.399 26.139L40.556 26.677L43.436 31.189L44.279 30.651ZM40.5839 26.0996L35.5439 32.5316L36.3311 33.1484L41.3711 26.7164L40.5839 26.0996ZM35.7518 33.3042L39.3518 34.7442L39.7232 33.8158L36.1232 32.3758L35.7518 33.3042ZM39.0375 34.28V35H40.0375V34.28H39.0375ZM39.5375 34.5H30.4175V35.5H39.5375V34.5ZM30.9175 35V34.28H29.9175V35H30.9175ZM60.953 32.36L60.5994 32.7136L60.602 32.7161L60.953 32.36ZM60.953 13.688L61.304 14.0441L61.3066 14.0416L60.953 13.688ZM77.129 11.816L76.8435 12.2265L76.8476 12.2293L77.129 11.816ZM74.441 19.064L74.3197 19.5491L74.3448 19.5553L74.3703 19.559L74.441 19.064ZM73.865 18.92H73.365V19.3104L73.7437 19.4051L73.865 18.92ZM73.865 11.72H74.365V11.3676L74.0332 11.2491L73.865 11.72ZM73.193 11.48L73.3612 11.009L73.3511 11.0057L73.193 11.48ZM67.193 13.832L66.7628 13.5771L66.7594 13.5831L67.193 13.832ZM67.193 31.976L66.7593 32.225L66.765 32.2344L67.193 31.976ZM74.921 33.656L75.1604 34.095L75.1649 34.0925L74.921 33.656ZM77.465 31.304L77.0448 31.0329L77.0426 31.0365L77.465 31.304ZM78.425 28.28V27.78H77.925V28.28H78.425ZM79.625 28.28H80.125V27.78H79.625V28.28ZM78.473 31.928L78.057 31.6506L78.057 31.6506L78.473 31.928ZM75.257 34.712L75.4765 35.1614L75.4847 35.1571L75.257 34.712ZM70.505 35.22C66.5014 35.22 63.458 34.1276 61.304 32.0039L60.602 32.7161C62.992 35.0724 66.3166 36.22 70.505 36.22V35.22ZM61.3066 32.0064C59.1494 29.8492 58.045 26.8684 58.045 23H57.045C57.045 27.0676 58.2126 30.3268 60.5994 32.7136L61.3066 32.0064ZM58.045 23C58.045 19.1313 59.1494 16.1683 61.304 14.0441L60.602 13.3319C58.2126 15.6877 57.045 18.9327 57.045 23H58.045ZM61.3066 14.0416C63.4608 11.8873 66.5034 10.78 70.505 10.78V9.78C66.3146 9.78 62.9892 10.9447 60.5994 13.3344L61.3066 14.0416ZM70.505 10.78C73.4064 10.78 75.4936 11.2874 76.8435 12.2265L77.4145 11.4055C75.8204 10.2966 73.4916 9.78 70.505 9.78V10.78ZM76.8476 12.2293C78.2514 13.1851 78.885 14.2933 78.885 15.56H79.885C79.885 13.8827 79.0146 12.4949 77.4104 11.4027L76.8476 12.2293ZM78.885 15.56C78.885 16.5362 78.5879 17.282 78.0234 17.8464L78.7306 18.5536C79.5101 17.774 79.885 16.7597 79.885 15.56H78.885ZM78.0234 17.8464C77.4957 18.3742 76.7691 18.66 75.785 18.66V19.66C76.9769 19.66 77.9783 19.3058 78.7306 18.5536L78.0234 17.8464ZM75.785 18.66C75.3609 18.66 74.9365 18.6297 74.5117 18.569L74.3703 19.559C74.8415 19.6263 75.3131 19.66 75.785 19.66V18.66ZM74.5623 18.5789L73.9863 18.4349L73.7437 19.4051L74.3197 19.5491L74.5623 18.5789ZM74.365 18.92V11.72H73.365V18.92H74.365ZM74.0332 11.2491L73.3612 11.0091L73.0248 11.9509L73.6968 12.1909L74.0332 11.2491ZM73.3511 11.0057C72.8065 10.8241 72.1742 10.74 71.465 10.74V11.74C72.0998 11.74 72.6195 11.8159 73.0349 11.9543L73.3511 11.0057ZM71.465 10.74C69.4438 10.74 67.8659 11.7157 66.7629 13.5771L67.6231 14.0869C68.5681 12.4923 69.8382 11.74 71.465 11.74V10.74ZM66.7594 13.5831C65.6961 15.4352 65.205 18.6101 65.205 23H66.205C66.205 18.6219 66.7059 15.6848 67.6266 14.0809L66.7594 13.5831ZM65.205 23C65.205 27.265 65.6968 30.374 66.7594 32.2249L67.6266 31.7271C66.7052 30.122 66.205 27.247 66.205 23H65.205ZM66.765 32.2344C67.8701 34.0648 69.4484 35.02 71.465 35.02V34.02C69.8336 34.02 68.5639 33.2792 67.621 31.7176L66.765 32.2344ZM71.465 35.02C72.7934 35.02 74.0282 34.7125 75.1604 34.0949L74.6816 33.2171C73.7018 33.7515 72.6326 34.02 71.465 34.02V35.02ZM75.1649 34.0925C76.3183 33.4479 77.2307 32.6085 77.8874 31.5715L77.0426 31.0365C76.4833 31.9195 75.6997 32.6481 74.6771 33.2195L75.1649 34.0925ZM77.8851 31.5751C78.5691 30.5149 78.925 29.4142 78.925 28.28H77.925C77.925 29.1938 77.6409 30.1091 77.0449 31.0329L77.8851 31.5751ZM78.425 28.78H79.625V27.78H78.425V28.78ZM79.125 28.28C79.125 29.4532 78.7749 30.5738 78.057 31.6506L78.889 32.2053C79.7071 30.9782 80.125 29.6668 80.125 28.28H79.125ZM78.057 31.6506C77.3417 32.7236 76.3382 33.5972 75.0293 34.2669L75.4847 35.1571C76.9278 34.4188 78.0683 33.4364 78.889 32.2053L78.057 31.6506ZM75.0376 34.2627C73.7406 34.8961 72.2338 35.22 70.505 35.22V36.22C72.3602 36.22 74.0214 35.8719 75.4764 35.1613L75.0376 34.2627ZM85.7821 33.896L85.4718 34.288L85.4718 34.288L85.7821 33.896ZM84.2941 25.544L84.7505 25.7482L84.7556 25.7368L84.7601 25.7252L84.2941 25.544ZM85.1581 23.96L85.0396 23.4742L84.8627 23.5174L84.7549 23.6643L85.1581 23.96ZM89.4301 23.096L89.3479 22.6028L89.3479 22.6028L89.4301 23.096ZM98.5981 22.04L98.6222 22.5394L99.0981 22.5165V22.04H98.5981ZM97.3021 13.256L97.7227 12.9856L97.7227 12.9856L97.3021 13.256ZM91.5901 11.48L91.432 11.0056L91.422 11.0091L91.5901 11.48ZM90.9181 11.72L90.75 11.2491L90.4181 11.3676V11.72H90.9181ZM90.9181 18.92L91.0306 19.4072L91.4181 19.3178V18.92H90.9181ZM90.2941 19.064L90.3561 19.5601L90.3816 19.557L90.4066 19.5512L90.2941 19.064ZM86.3581 18.2L85.9961 18.5448L86.0045 18.5537L86.0133 18.5621L86.3581 18.2ZM87.6061 11.816L87.3247 11.4027L87.3206 11.4055L87.6061 11.816ZM100.71 11.624L100.486 12.0713L100.496 12.0759L100.71 11.624ZM104.838 15.272L104.408 15.5267L104.414 15.537L104.838 15.272ZM106.278 33.56H105.778V33.9504L106.157 34.0451L106.278 33.56ZM109.158 34.28H109.658V33.8896L109.279 33.7949L109.158 34.28ZM109.158 35V35.5H109.658V35H109.158ZM100.374 33.224L100.747 32.8911L100.74 32.8828L100.374 33.224ZM99.3181 31.4L99.7904 31.2357L99.4251 30.1856L98.8819 31.1557L99.3181 31.4ZM97.7341 33.56L98.0878 33.9137L98.0966 33.9044L97.7341 33.56ZM97.4941 32.12L97.8941 32.42L97.8973 32.4157L97.4941 32.12ZM98.5981 30.2L99.0489 30.4164L99.0981 30.3138V30.2H98.5981ZM98.5981 23.24H99.0981V22.74H98.5981V23.24ZM94.3741 23.48L94.315 22.9835L94.3101 22.9841L94.3741 23.48ZM92.3581 23.72L92.3129 23.2221L92.0233 23.2484L91.9029 23.5131L92.3581 23.72ZM91.8781 25.16L92.3617 25.2872L92.3617 25.2872L91.8781 25.16ZM92.2141 32.744L92.6372 32.4776L92.6372 32.4776L92.2141 32.744ZM92.3581 35.22C89.5733 35.22 87.5079 34.6245 86.0925 33.504L85.4718 34.288C87.1284 35.5995 89.447 36.22 92.3581 36.22V35.22ZM86.0925 33.504C84.671 32.3787 83.9781 30.9687 83.9781 29.24H82.9781C82.9781 31.2873 83.8212 32.9813 85.4718 34.288L86.0925 33.504ZM83.9781 29.24C83.9781 28.067 84.2333 26.9043 84.7505 25.7482L83.8377 25.3398C83.2669 26.6156 82.9781 27.917 82.9781 29.24H83.9781ZM84.7601 25.7252C84.9689 25.1884 85.2361 24.6991 85.5613 24.2557L84.7549 23.6643C84.3761 24.1809 84.0674 24.7476 83.8281 25.3628L84.7601 25.7252ZM85.2766 24.4458C86.575 24.1291 87.9867 23.8435 89.5123 23.5892L89.3479 22.6028C87.8015 22.8605 86.3653 23.1509 85.0396 23.4742L85.2766 24.4458ZM89.5123 23.5892C92.9547 23.0155 95.9907 22.6662 98.6222 22.5394L98.5741 21.5406C95.8936 21.6698 92.8175 22.0245 89.3479 22.6028L89.5123 23.5892ZM99.0981 22.04V20.6H98.0981V22.04H99.0981ZM99.0981 20.6C99.0981 18.8061 98.9892 17.2751 98.7665 16.0131C98.5447 14.7562 98.2049 13.7357 97.7227 12.9856L96.8815 13.5264C97.2634 14.1203 97.5715 14.9958 97.7817 16.1869C97.991 17.3729 98.0981 18.8419 98.0981 20.6H99.0981ZM97.7227 12.9856C96.7542 11.4791 95.2558 10.74 93.3181 10.74V11.74C94.9644 11.74 96.122 12.3449 96.8815 13.5264L97.7227 12.9856ZM93.3181 10.74C92.6089 10.74 91.9766 10.8241 91.432 11.0057L91.7482 11.9543C92.1636 11.8159 92.6833 11.74 93.3181 11.74V10.74ZM91.422 11.0091L90.75 11.2491L91.0863 12.1909L91.7583 11.9509L91.422 11.0091ZM90.4181 11.72V18.92H91.4181V11.72H90.4181ZM90.8057 18.4328L90.1817 18.5768L90.4066 19.5512L91.0306 19.4072L90.8057 18.4328ZM90.2321 18.5679C89.7321 18.6304 89.3223 18.66 88.9981 18.66V19.66C89.378 19.66 89.8321 19.6256 90.3561 19.5601L90.2321 18.5679ZM88.9981 18.66C88.0148 18.66 87.2661 18.3743 86.703 17.8379L86.0133 18.5621C86.7941 19.3057 87.8054 19.66 88.9981 19.66V18.66ZM86.7202 17.8552C86.1838 17.292 85.8981 16.5433 85.8981 15.56H84.8981C84.8981 16.7527 85.2524 17.764 85.9961 18.5448L86.7202 17.8552ZM85.8981 15.56C85.8981 14.2884 86.5208 13.1801 87.8917 12.2265L87.3206 11.4055C85.7475 12.4999 84.8981 13.8876 84.8981 15.56H85.8981ZM87.8875 12.2293C89.2717 11.2869 91.3779 10.78 94.2781 10.78V9.78C91.2903 9.78 88.9486 10.2971 87.3247 11.4027L87.8875 12.2293ZM94.2781 10.78C96.7152 10.78 98.7789 11.2174 100.487 12.0712L100.934 11.1768C99.0573 10.2386 96.8331 9.78 94.2781 9.78V10.78ZM100.496 12.0759C102.24 12.902 103.536 14.0536 104.408 15.5267L105.268 15.0173C104.284 13.3544 102.828 12.074 100.924 11.1721L100.496 12.0759ZM104.414 15.537C105.319 16.9848 105.778 18.6668 105.778 20.6H106.778C106.778 18.5012 106.277 16.6312 105.262 15.007L104.414 15.537ZM105.778 20.6V33.56H106.778V20.6H105.778ZM106.157 34.0451L109.037 34.7651L109.279 33.7949L106.399 33.0749L106.157 34.0451ZM108.658 34.28V35H109.658V34.28H108.658ZM109.158 34.5H104.838V35.5H109.158V34.5ZM104.838 34.5C103.028 34.5 101.689 33.9467 100.747 32.8912L100.001 33.5568C101.172 34.8693 102.808 35.5 104.838 35.5V34.5ZM100.74 32.8828C100.347 32.4623 100.028 31.9181 99.7904 31.2357L98.8459 31.5643C99.1205 32.3539 99.5051 33.0257 100.009 33.5652L100.74 32.8828ZM98.8819 31.1557C98.4534 31.9208 97.9499 32.6069 97.3716 33.2156L98.0966 33.9044C98.7344 33.2331 99.2868 32.4792 99.7544 31.6443L98.8819 31.1557ZM97.3806 33.2064C96.0397 34.5473 94.3773 35.22 92.3581 35.22V36.22C94.6269 36.22 96.5485 35.4527 98.0877 33.9136L97.3806 33.2064ZM94.2781 34.54C95.6709 34.54 96.8755 33.7782 97.8941 32.42L97.0941 31.82C96.1927 33.0218 95.2534 33.54 94.2781 33.54V34.54ZM97.8973 32.4157C98.2741 31.9019 98.6573 31.2321 99.0489 30.4164L98.1474 29.9836C97.7709 30.7679 97.4181 31.3781 97.0909 31.8243L97.8973 32.4157ZM99.0981 30.2V23.24H98.0981V30.2H99.0981ZM98.5981 22.74C97.1081 22.74 95.6802 22.821 94.315 22.9835L94.4332 23.9765C95.756 23.819 97.1442 23.74 98.5981 23.74V22.74ZM94.3101 22.9841C93.317 23.1123 92.6541 23.191 92.3129 23.2221L92.4034 24.2179C92.7662 24.185 93.4473 24.1037 94.4381 23.9759L94.3101 22.9841ZM91.9029 23.5131C91.7263 23.9017 91.5579 24.4121 91.3946 25.0328L92.3617 25.2872C92.5183 24.6919 92.6699 24.2423 92.8133 23.9269L91.9029 23.5131ZM91.3946 25.0328C91.0643 26.2877 90.8981 27.5305 90.8981 28.76H91.8981C91.8981 27.6215 92.0519 26.4643 92.3617 25.2872L91.3946 25.0328ZM90.8981 28.76C90.8981 30.5841 91.1716 32.0267 91.791 33.0104L92.6372 32.4776C92.1686 31.7333 91.8981 30.5199 91.8981 28.76H90.8981ZM91.791 33.0104C92.4026 33.9817 93.2337 34.54 94.2781 34.54V33.54C93.6586 33.54 93.1137 33.2343 92.6372 32.4776L91.791 33.0104ZM112.061 34.28L111.939 33.7949L111.561 33.8896V34.28H112.061ZM114.941 33.56L115.062 34.0451L115.441 33.9504V33.56H114.941ZM114.941 2.84H115.441V2.44961L115.062 2.35493L114.941 2.84ZM112.061 2.12H111.561V2.51038L111.939 2.60507L112.061 2.12ZM112.061 1.4V0.899998H111.561V1.4H112.061ZM122.621 33.56H122.121V33.9504L122.499 34.0451L122.621 33.56ZM125.501 34.28H126.001V33.8896L125.622 33.7949L125.501 34.28ZM125.501 35V35.5H126.001V35H125.501ZM112.061 35H111.561V35.5H112.061V35ZM112.182 34.7651L115.062 34.0451L114.819 33.0749L111.939 33.7949L112.182 34.7651ZM115.441 33.56V2.84H114.441V33.56H115.441ZM115.062 2.35493L112.182 1.63493L111.939 2.60507L114.819 3.32507L115.062 2.35493ZM112.561 2.12V1.4H111.561V2.12H112.561ZM112.061 1.9H118.301V0.899998H112.061V1.9ZM118.301 1.9C119.664 1.9 120.594 2.24039 121.187 2.83355C121.78 3.42671 122.121 4.35707 122.121 5.72H123.121C123.121 4.20293 122.741 2.97328 121.894 2.12644C121.047 1.2796 119.818 0.899998 118.301 0.899998V1.9ZM122.121 5.72V33.56H123.121V5.72H122.121ZM122.499 34.0451L125.379 34.7651L125.622 33.7949L122.742 33.0749L122.499 34.0451ZM125.001 34.28V35H126.001V34.28H125.001ZM125.501 34.5H112.061V35.5H125.501V34.5ZM112.561 35V34.28H111.561V35H112.561ZM130.293 44.168L129.947 44.5287L129.947 44.5287L130.293 44.168ZM130.053 38.168L129.699 37.8143L129.691 37.8232L130.053 38.168ZM133.461 37.208L133.582 36.7229L133.553 36.7156L133.523 36.7119L133.461 37.208ZM133.989 37.304L134.065 36.8098L134.027 36.804H133.989V37.304ZM134.613 37.4H135.113V36.971L134.689 36.9058L134.613 37.4ZM134.613 43.88H134.113V44.4736L134.698 44.3727L134.613 43.88ZM137.061 42.344L137.449 42.6598L137.449 42.6598L137.061 42.344ZM139.413 37.88L139.876 38.0693L139.877 38.0657L139.413 37.88ZM140.373 35.48L140.837 35.6657L140.924 35.448L140.813 35.2419L140.373 35.48ZM127.893 12.44L128.333 12.2019L128.234 12.0204L128.037 11.9611L127.893 12.44ZM125.493 11.72H124.993V12.092L125.349 12.1989L125.493 11.72ZM125.493 11V10.5H124.993V11H125.493ZM135.429 12.056L135.133 12.4592L135.141 12.4647L135.149 12.47L135.429 12.056ZM137.973 15.08L137.53 15.312L137.533 15.318L137.973 15.08ZM143.973 26.168L143.533 26.406L144.048 27.3577L144.439 26.3486L143.973 26.168ZM149.013 13.16L149.479 13.3406L149.658 12.8795L149.199 12.6958L149.013 13.16ZM145.413 11.72H144.913V12.0585L145.227 12.1842L145.413 11.72ZM145.413 11V10.5H144.913V11H145.413ZM154.293 11H154.793V10.5H154.293V11ZM154.293 11.72L154.469 12.1882L154.793 12.0665V11.72H154.293ZM150.453 13.16L150.278 12.6918L150.068 12.7704L149.987 12.979L150.453 13.16ZM140.853 37.88L141.319 38.0618L141.319 38.061L140.853 37.88ZM137.589 43.544L137.236 43.1904L137.231 43.1953L137.589 43.544ZM133.653 44.82C132.302 44.82 131.321 44.4616 130.639 43.8073L129.947 44.5287C130.865 45.4104 132.124 45.82 133.653 45.82V44.82ZM130.639 43.8073C129.958 43.1531 129.593 42.2388 129.593 41H128.593C128.593 42.4492 129.028 43.6469 129.947 44.5287L130.639 43.8073ZM129.593 41C129.593 39.8713 129.889 39.0658 130.415 38.5128L129.691 37.8232C128.938 38.6142 128.593 39.6967 128.593 41H129.593ZM130.407 38.5216C130.971 37.9571 131.717 37.66 132.693 37.66V36.66C131.493 36.66 130.479 37.0349 129.7 37.8144L130.407 38.5216ZM132.693 37.66C132.928 37.66 133.164 37.6747 133.399 37.7041L133.523 36.7119C133.247 36.6773 132.97 36.66 132.693 36.66V37.66ZM133.34 37.6931C133.589 37.7555 133.823 37.804 133.989 37.804V36.804C133.991 36.804 133.983 36.804 133.961 36.8014C133.94 36.7989 133.911 36.7947 133.875 36.7881C133.801 36.7747 133.704 36.7534 133.582 36.7229L133.34 37.6931ZM133.913 37.7982L134.537 37.8942L134.689 36.9058L134.065 36.8098L133.913 37.7982ZM134.113 37.4V43.88H135.113V37.4H134.113ZM134.698 44.3727C135.766 44.1886 136.683 43.5993 137.449 42.6598L136.674 42.0282C136.031 42.8167 135.316 43.2514 134.528 43.3873L134.698 44.3727ZM137.449 42.6598C138.202 41.7355 139.008 40.1896 139.876 38.0693L138.95 37.6907C138.09 39.7944 137.328 41.2245 136.674 42.0282L137.449 42.6598ZM139.877 38.0657L140.837 35.6657L139.909 35.2943L138.949 37.6943L139.877 38.0657ZM140.813 35.2419L128.333 12.2019L127.453 12.6781L139.933 35.7181L140.813 35.2419ZM128.037 11.9611L125.637 11.2411L125.349 12.1989L127.749 12.9189L128.037 11.9611ZM125.993 11.72V11H124.993V11.72H125.993ZM125.493 11.5H131.493V10.5H125.493V11.5ZM131.493 11.5C133.092 11.5 134.287 11.8387 135.133 12.4592L135.725 11.6528C134.651 10.8653 133.222 10.5 131.493 10.5V11.5ZM135.149 12.47C136.057 13.0849 136.855 14.0221 137.53 15.312L138.416 14.848C137.684 13.4499 136.786 12.3711 135.71 11.642L135.149 12.47ZM137.533 15.318L143.533 26.406L144.413 25.93L138.413 14.842L137.533 15.318ZM144.439 26.3486L149.479 13.3406L148.547 12.9794L143.507 25.9874L144.439 26.3486ZM149.199 12.6958L145.599 11.2558L145.227 12.1842L148.827 13.6242L149.199 12.6958ZM145.913 11.72V11H144.913V11.72H145.913ZM145.413 11.5H154.293V10.5H145.413V11.5ZM153.793 11V11.72H154.793V11H153.793ZM154.118 11.2518L150.278 12.6918L150.629 13.6282L154.469 12.1882L154.118 11.2518ZM149.987 12.979L140.387 37.699L141.319 38.061L150.919 13.341L149.987 12.979ZM140.387 37.6982C139.373 40.298 138.315 42.1107 137.236 43.1904L137.943 43.8976C139.167 42.6733 140.285 40.71 141.319 38.0618L140.387 37.6982ZM137.231 43.1953C136.16 44.2956 134.973 44.82 133.653 44.82V45.82C135.277 45.82 136.714 45.1604 137.947 43.8927L137.231 43.1953ZM153.669 34.424L153.308 34.7696L153.315 34.7776L153.324 34.7853L153.669 34.424ZM153.669 29.384L153.316 29.0304L153.316 29.0304L153.669 29.384ZM158.709 29.384L158.348 29.7296L158.355 29.7376L158.364 29.7453L158.709 29.384ZM158.709 34.424L158.356 34.0704L158.356 34.0704L158.709 34.424ZM156.213 34.98C155.39 34.98 154.664 34.6837 154.015 34.0627L153.324 34.7853C154.146 35.5723 155.116 35.98 156.213 35.98V34.98ZM154.03 34.0784C153.409 33.4292 153.113 32.7028 153.113 31.88H152.113C152.113 32.9772 152.521 33.9468 153.308 34.7696L154.03 34.0784ZM153.113 31.88C153.113 31.058 153.409 30.3517 154.023 29.7376L153.316 29.0304C152.522 29.8243 152.113 30.782 152.113 31.88H153.113ZM154.023 29.7376C154.674 29.0866 155.398 28.78 156.213 28.78V27.78C155.109 27.78 154.137 28.2094 153.316 29.0304L154.023 29.7376ZM156.213 28.78C157.028 28.78 157.732 29.0855 158.348 29.7296L159.07 29.0384C158.279 28.2105 157.319 27.78 156.213 27.78V28.78ZM158.364 29.7453C159.008 30.3614 159.313 31.0655 159.313 31.88H160.313C160.313 30.7745 159.883 29.8146 159.055 29.0227L158.364 29.7453ZM159.313 31.88C159.313 32.6956 159.007 33.4195 158.356 34.0704L159.063 34.7776C159.884 33.9565 160.313 32.9844 160.313 31.88H159.313ZM158.356 34.0704C157.741 34.6846 157.035 34.98 156.213 34.98V35.98C157.311 35.98 158.269 35.5714 159.063 34.7776L158.356 34.0704Z" fill="white"/>
</svg>
