<svg width="121" height="35" viewBox="0 0 121 35" fill="none" xmlns="http://www.w3.org/2000/svg">
<path d="M0.8 25.46L2.96 24.92V1.88L0.8 1.34V0.799998H20.06V7.28H18.98C18.524 6.92 18.128 6.464 17.792 5.912C17.024 4.616 16.64 3.212 16.64 1.7H8.9V13.04H13.04C13.208 12.128 13.52 11.276 13.976 10.484C14.168 10.124 14.396 9.776 14.66 9.44H15.74V17.54H14.66C14.396 17.204 14.168 16.856 13.976 16.496C13.52 15.704 13.208 14.852 13.04 13.94H8.9V25.1H17.36C17.36 23.588 17.744 22.184 18.512 20.888C18.848 20.336 19.244 19.88 19.7 19.52H20.78V26H0.8V25.46ZM22.5631 25.46L25.4431 24.38L29.9071 18.656L23.8231 9.08L22.0231 8.54V8H26.8831C28.0351 8 28.9711 8.264 29.6911 8.792C30.4111 9.296 31.0951 10.052 31.7431 11.06L33.5791 13.976L36.9631 9.62L34.2631 8.54V8H41.1031V8.54L38.2231 9.62L34.1191 14.84L40.5631 24.92L42.3631 25.46V26H37.5031C36.3511 26 35.4151 25.748 34.6951 25.244C33.9751 24.74 33.2911 23.972 32.6431 22.94L30.4831 19.556L26.7031 24.38L29.4031 25.46V26H22.5631V25.46ZM52.6288 26.54C49.5568 26.54 47.1688 25.7 45.4648 24.02C43.7608 22.316 42.9088 19.976 42.9088 17C42.9088 14.024 43.7608 11.696 45.4648 10.016C47.1688 8.312 49.5568 7.46 52.6288 7.46C54.8368 7.46 56.4928 7.844 57.5968 8.612C58.7248 9.38 59.2888 10.316 59.2888 11.42C59.2888 12.236 59.0368 12.896 58.5328 13.4C58.0528 13.88 57.4048 14.12 56.5888 14.12C56.2528 14.12 55.9168 14.096 55.5808 14.048L55.1488 13.94V8.54L54.6448 8.36C54.2848 8.24 53.8528 8.18 53.3488 8.18C51.9808 8.18 50.9128 8.828 50.1448 10.124C49.4008 11.42 49.0288 13.712 49.0288 17C49.0288 20.192 49.4008 22.436 50.1448 23.732C50.9128 25.004 51.9808 25.64 53.3488 25.64C54.2848 25.64 55.1488 25.424 55.9408 24.992C56.7568 24.536 57.3928 23.948 57.8488 23.228C58.3288 22.484 58.5688 21.728 58.5688 20.96H59.4688C59.4688 21.92 59.1808 22.832 58.6048 23.696C58.0288 24.56 57.2248 25.256 56.1928 25.784C55.1608 26.288 53.9728 26.54 52.6288 26.54ZM69.0186 26.54C66.8826 26.54 65.2386 26.084 64.0866 25.172C62.9346 24.26 62.3586 23.096 62.3586 21.68C62.3586 20.744 62.5626 19.82 62.9706 18.908C63.1386 18.476 63.3546 18.08 63.6186 17.72C64.6026 17.48 65.6706 17.264 66.8226 17.072C69.4146 16.64 71.7066 16.376 73.6986 16.28V15.2C73.6986 12.536 73.3746 10.7 72.7266 9.692C72.0786 8.684 71.0826 8.18 69.7386 8.18C69.2346 8.18 68.8026 8.24 68.4426 8.36L67.9386 8.54V13.94L67.4706 14.048C67.0866 14.096 66.7626 14.12 66.4986 14.12C65.6826 14.12 65.0226 13.88 64.5186 13.4C64.0386 12.896 63.7986 12.236 63.7986 11.42C63.7986 10.316 64.3506 9.38 65.4546 8.612C66.5826 7.844 68.2506 7.46 70.4586 7.46C72.3306 7.46 73.9386 7.796 75.2826 8.468C76.6506 9.116 77.6826 10.028 78.3786 11.204C79.0986 12.356 79.4586 13.688 79.4586 15.2V24.92L81.6186 25.46V26H78.3786C76.9386 26 75.8226 25.556 75.0306 24.668C74.6946 24.308 74.4306 23.852 74.2386 23.3C73.9026 23.9 73.5066 24.44 73.0506 24.92C71.9706 26 70.6266 26.54 69.0186 26.54ZM70.4586 25.28C71.3466 25.28 72.1506 24.8 72.8706 23.84C73.1346 23.48 73.4106 23 73.6986 22.4V17.18C72.5946 17.18 71.5386 17.24 70.5306 17.36C69.7866 17.456 69.2826 17.516 69.0186 17.54C68.8986 17.804 68.7786 18.164 68.6586 18.62C68.4186 19.532 68.2986 20.432 68.2986 21.32C68.2986 22.664 68.5026 23.66 68.9106 24.308C69.3186 24.956 69.8346 25.28 70.4586 25.28ZM83.7955 25.46L85.9555 24.92V1.88L83.7955 1.34V0.799998H88.4755C90.6355 0.799998 91.7155 1.88 91.7155 4.04V24.92L93.8755 25.46V26H83.7955V25.46ZM99.9898 33.74C98.9098 33.74 98.0698 33.452 97.4698 32.876C96.8698 32.3 96.5698 31.508 96.5698 30.5C96.5698 29.588 96.8098 28.88 97.2898 28.376C97.7938 27.872 98.4538 27.62 99.2698 27.62C99.4618 27.62 99.6538 27.632 99.8458 27.656C100.038 27.704 100.17 27.728 100.242 27.728L100.71 27.8V32.66C101.406 32.54 102.018 32.156 102.546 31.508C103.074 30.86 103.662 29.744 104.31 28.16L105.03 26.36L95.6698 9.08L93.8698 8.54V8H98.3698C99.6178 8 100.602 8.264 101.322 8.792C102.066 9.296 102.702 10.052 103.23 11.06L107.73 19.376L111.51 9.62L108.81 8.54V8H115.47V8.54L112.59 9.62L105.39 28.16C104.622 30.128 103.806 31.544 102.942 32.408C102.078 33.296 101.094 33.74 99.9898 33.74ZM116.91 26.36C116.19 26.36 115.554 26.096 115.002 25.568C114.474 25.016 114.21 24.38 114.21 23.66C114.21 22.94 114.474 22.316 115.002 21.788C115.554 21.236 116.19 20.96 116.91 20.96C117.63 20.96 118.254 21.236 118.782 21.788C119.334 22.316 119.61 22.94 119.61 23.66C119.61 24.38 119.334 25.016 118.782 25.568C118.254 26.096 117.63 26.36 116.91 26.36Z" fill="#2023B1"/>
<path d="M0.8 25.46L0.678732 24.9749L0.3 25.0696V25.46H0.8ZM2.96 24.92L3.08127 25.4051L3.46 25.3104V24.92H2.96ZM2.96 1.88H3.46V1.48961L3.08127 1.39493L2.96 1.88ZM0.8 1.34H0.3V1.73039L0.678732 1.82507L0.8 1.34ZM0.8 0.799998V0.299998H0.3V0.799998H0.8ZM20.06 0.799998H20.56V0.299998H20.06V0.799998ZM20.06 7.28V7.78H20.56V7.28H20.06ZM18.98 7.28L18.6702 7.67244L18.8064 7.78H18.98V7.28ZM17.792 5.912L17.3618 6.16692L17.3649 6.17197L17.792 5.912ZM16.64 1.7H17.14V1.2H16.64V1.7ZM8.9 1.7V1.2H8.4V1.7H8.9ZM8.9 13.04H8.4V13.54H8.9V13.04ZM13.04 13.04V13.54H13.4563L13.5317 13.1306L13.04 13.04ZM13.976 10.484L14.4093 10.7335L14.4134 10.7265L14.4172 10.7193L13.976 10.484ZM14.66 9.44V8.94H14.417L14.2668 9.13109L14.66 9.44ZM15.74 9.44H16.24V8.94H15.74V9.44ZM15.74 17.54V18.04H16.24V17.54H15.74ZM14.66 17.54L14.2668 17.8489L14.417 18.04H14.66V17.54ZM13.976 16.496L14.4172 16.2607L14.4134 16.2535L14.4093 16.2465L13.976 16.496ZM13.04 13.94L13.5317 13.8494L13.4563 13.44H13.04V13.94ZM8.9 13.94V13.44H8.4V13.94H8.9ZM8.9 25.1H8.4V25.6H8.9V25.1ZM17.36 25.1V25.6H17.86V25.1H17.36ZM18.512 20.888L18.0849 20.628L18.0819 20.6331L18.512 20.888ZM19.7 19.52V19.02H19.5264L19.3902 19.1276L19.7 19.52ZM20.78 19.52H21.28V19.02H20.78V19.52ZM20.78 26V26.5H21.28V26H20.78ZM0.8 26H0.3V26.5H0.8V26ZM0.921268 25.9451L3.08127 25.4051L2.83873 24.4349L0.678732 24.9749L0.921268 25.9451ZM3.46 24.92V1.88H2.46V24.92H3.46ZM3.08127 1.39493L0.921268 0.854927L0.678732 1.82507L2.83873 2.36507L3.08127 1.39493ZM1.3 1.34V0.799998H0.3V1.34H1.3ZM0.8 1.3H20.06V0.299998H0.8V1.3ZM19.56 0.799998V7.28H20.56V0.799998H19.56ZM20.06 6.78H18.98V7.78H20.06V6.78ZM19.2898 6.88756C18.8854 6.5683 18.5276 6.15893 18.2191 5.65203L17.3649 6.17197C17.7284 6.76907 18.1626 7.2717 18.6702 7.67244L19.2898 6.88756ZM18.2221 5.6571C17.5 4.43856 17.14 3.12265 17.14 1.7H16.14C16.14 3.30135 16.548 4.79344 17.3619 6.1669L18.2221 5.6571ZM16.64 1.2H8.9V2.2H16.64V1.2ZM8.4 1.7V13.04H9.4V1.7H8.4ZM8.9 13.54H13.04V12.54H8.9V13.54ZM13.5317 13.1306C13.6896 12.2736 13.9821 11.4755 14.4093 10.7335L13.5427 10.2345C13.0579 11.0765 12.7264 11.9824 12.5483 12.9494L13.5317 13.1306ZM14.4172 10.7193C14.5947 10.3864 14.8064 10.0629 15.0532 9.74891L14.2668 9.13109C13.9856 9.48908 13.7413 9.86161 13.5348 10.2487L14.4172 10.7193ZM14.66 9.94H15.74V8.94H14.66V9.94ZM15.24 9.44V17.54H16.24V9.44H15.24ZM15.74 17.04H14.66V18.04H15.74V17.04ZM15.0532 17.2311C14.8064 16.9171 14.5947 16.5936 14.4172 16.2607L13.5348 16.7313C13.7413 17.1184 13.9856 17.4909 14.2668 17.8489L15.0532 17.2311ZM14.4093 16.2465C13.9821 15.5045 13.6896 14.7064 13.5317 13.8494L12.5483 14.0306C12.7264 14.9976 13.0579 15.9035 13.5427 16.7455L14.4093 16.2465ZM13.04 13.44H8.9V14.44H13.04V13.44ZM8.4 13.94V25.1H9.4V13.94H8.4ZM8.9 25.6H17.36V24.6H8.9V25.6ZM17.86 25.1C17.86 23.6773 18.2201 22.3614 18.9421 21.1429L18.0819 20.6331C17.268 22.0066 16.86 23.4987 16.86 25.1H17.86ZM18.9391 21.148C19.2476 20.6411 19.6054 20.2317 20.0098 19.9124L19.3902 19.1276C18.8826 19.5283 18.4484 20.0309 18.0849 20.628L18.9391 21.148ZM19.7 20.02H20.78V19.02H19.7V20.02ZM20.28 19.52V26H21.28V19.52H20.28ZM20.78 25.5H0.8V26.5H20.78V25.5ZM1.3 26V25.46H0.3V26H1.3ZM22.5631 25.46L22.3876 24.9918L22.0631 25.1135V25.46H22.5631ZM25.4431 24.38L25.6187 24.8482L25.7507 24.7987L25.8374 24.6875L25.4431 24.38ZM29.9071 18.656L30.3014 18.9635L30.5182 18.6855L30.3292 18.3879L29.9071 18.656ZM23.8231 9.08L24.2452 8.81187L24.1452 8.65462L23.9668 8.60109L23.8231 9.08ZM22.0231 8.54H21.5231V8.91201L21.8795 9.01891L22.0231 8.54ZM22.0231 8V7.5H21.5231V8H22.0231ZM29.6911 8.792L29.3954 9.1953L29.4044 9.20162L29.6911 8.792ZM31.7431 11.06L32.1663 10.7936L32.1637 10.7896L31.7431 11.06ZM33.5791 13.976L33.156 14.2424L33.5362 14.8463L33.974 14.2827L33.5791 13.976ZM36.9631 9.62L37.358 9.92674L37.7653 9.40237L37.1488 9.15576L36.9631 9.62ZM34.2631 8.54H33.7631V8.87852L34.0774 9.00424L34.2631 8.54ZM34.2631 8V7.5H33.7631V8H34.2631ZM41.1031 8H41.6031V7.5H41.1031V8ZM41.1031 8.54L41.2787 9.00816L41.6031 8.8865V8.54H41.1031ZM38.2231 9.62L38.0476 9.15183L37.9165 9.20097L37.8301 9.31097L38.2231 9.62ZM34.1191 14.84L33.7261 14.531L33.5066 14.8101L33.6979 15.1093L34.1191 14.84ZM40.5631 24.92L40.1419 25.1893L40.2418 25.3456L40.4195 25.3989L40.5631 24.92ZM42.3631 25.46H42.8631V25.088L42.5068 24.9811L42.3631 25.46ZM42.3631 26V26.5H42.8631V26H42.3631ZM32.6431 22.94L33.0666 22.6741L33.0646 22.671L32.6431 22.94ZM30.4831 19.556L30.9046 19.287L30.5249 18.6921L30.0896 19.2476L30.4831 19.556ZM26.7031 24.38L26.3096 24.0716L25.8982 24.5966L26.5174 24.8442L26.7031 24.38ZM29.4031 25.46H29.9031V25.1215L29.5888 24.9958L29.4031 25.46ZM29.4031 26V26.5H29.9031V26H29.4031ZM22.5631 26H22.0631V26.5H22.5631V26ZM22.7387 25.9282L25.6187 24.8482L25.2676 23.9118L22.3876 24.9918L22.7387 25.9282ZM25.8374 24.6875L30.3014 18.9635L29.5129 18.3485L25.0488 24.0725L25.8374 24.6875ZM30.3292 18.3879L24.2452 8.81187L23.4011 9.34813L29.4851 18.9241L30.3292 18.3879ZM23.9668 8.60109L22.1668 8.06109L21.8795 9.01891L23.6795 9.55891L23.9668 8.60109ZM22.5231 8.54V8H21.5231V8.54H22.5231ZM22.0231 8.5H26.8831V7.5H22.0231V8.5ZM26.8831 8.5C27.9597 8.5 28.7832 8.7462 29.3954 9.1952L29.9868 8.3888C29.1591 7.7818 28.1106 7.5 26.8831 7.5V8.5ZM29.4044 9.20162C30.0556 9.65746 30.6977 10.3584 31.3225 11.3304L32.1637 10.7896C31.4925 9.74557 30.7666 8.93454 29.9779 8.38238L29.4044 9.20162ZM31.32 11.3264L33.156 14.2424L34.0022 13.7096L32.1662 10.7936L31.32 11.3264ZM33.974 14.2827L37.358 9.92674L36.5683 9.31326L33.1843 13.6693L33.974 14.2827ZM37.1488 9.15576L34.4488 8.07576L34.0774 9.00424L36.7774 10.0842L37.1488 9.15576ZM34.7631 8.54V8H33.7631V8.54H34.7631ZM34.2631 8.5H41.1031V7.5H34.2631V8.5ZM40.6031 8V8.54H41.6031V8H40.6031ZM40.9276 8.07183L38.0476 9.15183L38.3987 10.0882L41.2787 9.00816L40.9276 8.07183ZM37.8301 9.31097L33.7261 14.531L34.5122 15.149L38.6162 9.92903L37.8301 9.31097ZM33.6979 15.1093L40.1419 25.1893L40.9844 24.6507L34.5404 14.5707L33.6979 15.1093ZM40.4195 25.3989L42.2195 25.9389L42.5068 24.9811L40.7068 24.4411L40.4195 25.3989ZM41.8631 25.46V26H42.8631V25.46H41.8631ZM42.3631 25.5H37.5031V26.5H42.3631V25.5ZM37.5031 25.5C36.4221 25.5 35.5952 25.2637 34.9819 24.8344L34.4084 25.6536C35.2351 26.2323 36.2801 26.5 37.5031 26.5V25.5ZM34.9819 24.8344C34.3333 24.3804 33.6919 23.67 33.0666 22.6741L32.2197 23.2059C32.8904 24.274 33.6169 25.0996 34.4084 25.6536L34.9819 24.8344ZM33.0646 22.671L30.9046 19.287L30.0617 19.825L32.2217 23.209L33.0646 22.671ZM30.0896 19.2476L26.3096 24.0716L27.0967 24.6884L30.8767 19.8644L30.0896 19.2476ZM26.5174 24.8442L29.2174 25.9242L29.5888 24.9958L26.8888 23.9158L26.5174 24.8442ZM28.9031 25.46V26H29.9031V25.46H28.9031ZM29.4031 25.5H22.5631V26.5H29.4031V25.5ZM23.0631 26V25.46H22.0631V26H23.0631ZM45.4648 24.02L45.1112 24.3736L45.1137 24.3761L45.4648 24.02ZM45.4648 10.016L45.8158 10.3721L45.8183 10.3696L45.4648 10.016ZM57.5968 8.612L57.3112 9.02247L57.3154 9.0253L57.5968 8.612ZM55.5808 14.048L55.4595 14.5331L55.4845 14.5393L55.51 14.543L55.5808 14.048ZM55.1488 13.94H54.6488V14.3304L55.0275 14.4251L55.1488 13.94ZM55.1488 8.54H55.6488V8.18764L55.3169 8.06913L55.1488 8.54ZM54.6448 8.36L54.813 7.88902L54.8029 7.88566L54.6448 8.36ZM50.1448 10.124L49.7146 9.86907L49.7111 9.87507L50.1448 10.124ZM50.1448 23.732L49.711 23.981L49.7167 23.9904L50.1448 23.732ZM55.9408 24.992L56.1802 25.431L56.1847 25.4285L55.9408 24.992ZM57.8488 23.228L57.4286 22.9569L57.4263 22.9605L57.8488 23.228ZM58.5688 20.96V20.46H58.0688V20.96H58.5688ZM59.4688 20.96H59.9688V20.46H59.4688V20.96ZM58.6048 23.696L58.1887 23.4186L58.1887 23.4186L58.6048 23.696ZM56.1928 25.784L56.4122 26.2334L56.4205 26.2291L56.1928 25.784ZM52.6288 26.04C49.6492 26.04 47.4017 25.2276 45.8158 23.6639L45.1137 24.3761C46.9358 26.1724 49.4643 27.04 52.6288 27.04V26.04ZM45.8183 23.6664C44.2291 22.0772 43.4088 19.8764 43.4088 17H42.4088C42.4088 20.0756 43.2924 22.5548 45.1112 24.3736L45.8183 23.6664ZM43.4088 17C43.4088 14.1233 44.2292 11.9363 45.8158 10.3721L45.1137 9.65995C43.2923 11.4557 42.4088 13.9247 42.4088 17H43.4088ZM45.8183 10.3696C47.4046 8.78328 49.6511 7.96 52.6288 7.96V6.96C49.4624 6.96 46.9329 7.84072 45.1112 9.66245L45.8183 10.3696ZM52.6288 7.96C54.7942 7.96 56.3293 8.33938 57.3112 9.02245L57.8823 8.20155C56.6562 7.34861 54.8793 6.96 52.6288 6.96V7.96ZM57.3154 9.0253C58.3432 9.7251 58.7888 10.5213 58.7888 11.42H59.7888C59.7888 10.1107 59.1063 9.0349 57.8781 8.1987L57.3154 9.0253ZM58.7888 11.42C58.7888 12.1242 58.5756 12.65 58.1792 13.0464L58.8863 13.7536C59.4979 13.142 59.7888 12.3477 59.7888 11.42H58.7888ZM58.1792 13.0464C57.8115 13.4142 57.3008 13.62 56.5888 13.62V14.62C57.5087 14.62 58.294 14.3458 58.8863 13.7536L58.1792 13.0464ZM56.5888 13.62C56.2766 13.62 55.9643 13.5977 55.6515 13.553L55.51 14.543C55.8692 14.5943 56.2289 14.62 56.5888 14.62V13.62ZM55.702 13.5629L55.27 13.4549L55.0275 14.4251L55.4595 14.5331L55.702 13.5629ZM55.6488 13.94V8.54H54.6488V13.94H55.6488ZM55.3169 8.06913L54.8129 7.88913L54.4766 8.83087L54.9806 9.01087L55.3169 8.06913ZM54.8029 7.88566C54.3783 7.74412 53.89 7.68 53.3488 7.68V8.68C53.8155 8.68 54.1912 8.73587 54.4866 8.83434L54.8029 7.88566ZM53.3488 7.68C51.7836 7.68 50.5616 8.43971 49.7146 9.8691L50.5749 10.3789C51.2639 9.21628 52.1779 8.68 53.3488 8.68V7.68ZM49.7111 9.87507C48.8958 11.2952 48.5288 13.7061 48.5288 17H49.5288C49.5288 13.7179 49.9057 11.5448 50.5784 10.3729L49.7111 9.87507ZM48.5288 17C48.5288 20.201 48.8966 22.562 49.7111 23.9809L50.5784 23.4831C49.9049 22.31 49.5288 20.183 49.5288 17H48.5288ZM49.7167 23.9904C50.5658 25.3968 51.7881 26.14 53.3488 26.14V25.14C52.1734 25.14 51.2597 24.6112 50.5728 23.4736L49.7167 23.9904ZM53.3488 26.14C54.3652 26.14 55.3119 25.9045 56.1802 25.4309L55.7013 24.5531C54.9856 24.9435 54.2044 25.14 53.3488 25.14V26.14ZM56.1847 25.4285C57.0661 24.9359 57.7664 24.2925 58.2712 23.4955L57.4263 22.9605C57.0191 23.6035 56.4474 24.1361 55.6968 24.5555L56.1847 25.4285ZM58.2689 23.4991C58.7929 22.6869 59.0688 21.8382 59.0688 20.96H58.0688C58.0688 21.6178 57.8646 22.2811 57.4286 22.9569L58.2689 23.4991ZM58.5688 21.46H59.4688V20.46H58.5688V21.46ZM58.9688 20.96C58.9688 21.8132 58.7146 22.6298 58.1887 23.4186L59.0208 23.9733C59.6469 23.0342 59.9688 22.0268 59.9688 20.96H58.9688ZM58.1887 23.4186C57.6654 24.2036 56.93 24.8452 55.965 25.3389L56.4205 26.2291C57.5195 25.6668 58.3921 24.9164 59.0208 23.9733L58.1887 23.4186ZM55.9733 25.3347C55.0204 25.8001 53.9096 26.04 52.6288 26.04V27.04C54.0359 27.04 55.3011 26.7759 56.4122 26.2333L55.9733 25.3347ZM64.0866 25.172L63.7762 25.564L63.7762 25.564L64.0866 25.172ZM62.9706 18.908L63.427 19.1122L63.4321 19.1008L63.4366 19.0892L62.9706 18.908ZM63.6186 17.72L63.5001 17.2342L63.3231 17.2774L63.2154 17.4243L63.6186 17.72ZM66.8226 17.072L66.7404 16.5788L66.7404 16.5788L66.8226 17.072ZM73.6986 16.28L73.7227 16.7794L74.1986 16.7565V16.28H73.6986ZM72.7266 9.692L73.1472 9.42162L73.1472 9.42162L72.7266 9.692ZM68.4426 8.36L68.2844 7.88555L68.2744 7.88913L68.4426 8.36ZM67.9386 8.54L67.7704 8.06913L67.4386 8.18764V8.54H67.9386ZM67.9386 13.94L68.051 14.4272L68.4386 14.3378V13.94H67.9386ZM67.4706 14.048L67.5326 14.5441L67.558 14.541L67.583 14.5352L67.4706 14.048ZM64.5186 13.4L64.1565 13.7448L64.1649 13.7537L64.1738 13.7621L64.5186 13.4ZM65.4546 8.612L65.1732 8.19868L65.1691 8.20155L65.4546 8.612ZM75.2826 8.468L75.0589 8.91531L75.0686 8.91987L75.2826 8.468ZM78.3786 11.204L77.9482 11.4587L77.9546 11.469L78.3786 11.204ZM79.4586 24.92H78.9586V25.3104L79.3373 25.4051L79.4586 24.92ZM81.6186 25.46H82.1186V25.0696L81.7399 24.9749L81.6186 25.46ZM81.6186 26V26.5H82.1186V26H81.6186ZM75.0306 24.668L75.4038 24.3351L75.3961 24.3268L75.0306 24.668ZM74.2386 23.3L74.7108 23.1357L74.3456 22.0856L73.8023 23.0557L74.2386 23.3ZM73.0506 24.92L73.4043 25.2737L73.4131 25.2644L73.0506 24.92ZM72.8706 23.84L73.2706 24.14L73.2738 24.1357L72.8706 23.84ZM73.6986 22.4L74.1494 22.6164L74.1986 22.5138V22.4H73.6986ZM73.6986 17.18H74.1986V16.68H73.6986V17.18ZM70.5306 17.36L70.4715 16.8635L70.4666 16.8641L70.5306 17.36ZM69.0186 17.54L68.9733 17.0421L68.6837 17.0684L68.5634 17.3331L69.0186 17.54ZM68.6586 18.62L69.1421 18.7472L69.1421 18.7472L68.6586 18.62ZM68.9106 24.308L69.3337 24.0416L69.3337 24.0416L68.9106 24.308ZM69.0186 26.04C66.9457 26.04 65.4284 25.5965 64.3969 24.78L63.7762 25.564C65.0488 26.5715 66.8194 27.04 69.0186 27.04V26.04ZM64.3969 24.78C63.3595 23.9587 62.8586 22.9367 62.8586 21.68H61.8586C61.8586 23.2553 62.5097 24.5613 63.7762 25.564L64.3969 24.78ZM62.8586 21.68C62.8586 20.819 63.0458 19.9644 63.427 19.1122L62.5142 18.7038C62.0794 19.6756 61.8586 20.669 61.8586 21.68H62.8586ZM63.4366 19.0892C63.5894 18.6964 63.7846 18.3391 64.0218 18.0157L63.2154 17.4243C62.9246 17.8209 62.6878 18.2556 62.5046 18.7268L63.4366 19.0892ZM63.7371 18.2058C64.7074 17.9691 65.7632 17.7555 66.9048 17.5652L66.7404 16.5788C65.578 16.7725 64.4978 16.9909 63.5001 17.2342L63.7371 18.2058ZM66.9048 17.5652C69.4832 17.1355 71.7551 16.8742 73.7227 16.7794L73.6745 15.7806C71.6581 15.8778 69.346 16.1445 66.7404 16.5788L66.9048 17.5652ZM74.1986 16.28V15.2H73.1986V16.28H74.1986ZM74.1986 15.2C74.1986 13.8501 74.1167 12.6941 73.948 11.7381C73.7802 10.7872 73.5214 10.0037 73.1472 9.42162L72.306 9.96238C72.5798 10.3883 72.807 11.0268 72.9632 11.9119C73.1185 12.7919 73.1986 13.8859 73.1986 15.2H74.1986ZM73.1472 9.42162C72.3947 8.2511 71.2283 7.68 69.7386 7.68V8.68C70.9369 8.68 71.7625 9.1169 72.306 9.96238L73.1472 9.42162ZM69.7386 7.68C69.1974 7.68 68.7091 7.74412 68.2845 7.88566L68.6007 8.83434C68.8961 8.73587 69.2718 8.68 69.7386 8.68V7.68ZM68.2744 7.88913L67.7704 8.06913L68.1068 9.01087L68.6108 8.83087L68.2744 7.88913ZM67.4386 8.54V13.94H68.4386V8.54H67.4386ZM67.8262 13.4528L67.3582 13.5608L67.583 14.5352L68.051 14.4272L67.8262 13.4528ZM67.4086 13.5519C67.0366 13.5984 66.7347 13.62 66.4986 13.62V14.62C66.7904 14.62 67.1366 14.5936 67.5326 14.5441L67.4086 13.5519ZM66.4986 13.62C65.7873 13.62 65.2586 13.4143 64.8634 13.0379L64.1738 13.7621C64.7866 14.3457 65.5779 14.62 66.4986 14.62V13.62ZM64.8807 13.0552C64.5043 12.66 64.2986 12.1313 64.2986 11.42H63.2986C63.2986 12.3407 63.5729 13.132 64.1565 13.7448L64.8807 13.0552ZM64.2986 11.42C64.2986 10.5164 64.7372 9.72011 65.7401 9.02245L65.1691 8.20155C63.964 9.03988 63.2986 10.1156 63.2986 11.42H64.2986ZM65.736 9.0253C66.7441 8.33891 68.2944 7.96 70.4586 7.96V6.96C68.2068 6.96 66.4211 7.34909 65.1732 8.1987L65.736 9.0253ZM70.4586 7.96C72.2716 7.96 73.7994 8.28541 75.059 8.91521L75.5062 8.02079C74.0778 7.30659 72.3896 6.96 70.4586 6.96V7.96ZM75.0686 8.91987C76.3565 9.52996 77.3085 10.3776 77.9483 11.4587L78.8089 10.9493C78.0567 9.67836 76.9447 8.70204 75.4966 8.01613L75.0686 8.91987ZM77.9546 11.469C78.6194 12.5328 78.9586 13.7708 78.9586 15.2H79.9586C79.9586 13.6052 79.5777 12.1792 78.8026 10.939L77.9546 11.469ZM78.9586 15.2V24.92H79.9586V15.2H78.9586ZM79.3373 25.4051L81.4973 25.9451L81.7399 24.9749L79.5799 24.4349L79.3373 25.4051ZM81.1186 25.46V26H82.1186V25.46H81.1186ZM81.6186 25.5H78.3786V26.5H81.6186V25.5ZM78.3786 25.5C77.0485 25.5 76.0812 25.0947 75.4037 24.3352L74.6574 25.0008C75.564 26.0173 76.8286 26.5 78.3786 26.5V25.5ZM75.3961 24.3268C75.1156 24.0263 74.8842 23.6341 74.7108 23.1357L73.7663 23.4643C73.977 24.0699 74.2735 24.5897 74.6651 25.0092L75.3961 24.3268ZM73.8023 23.0557C73.4859 23.6208 73.1144 24.1269 72.6881 24.5756L73.4131 25.2644C73.8988 24.7531 74.3193 24.1792 74.6748 23.5443L73.8023 23.0557ZM72.697 24.5664C71.7162 25.5473 70.5018 26.04 69.0186 26.04V27.04C70.7514 27.04 72.225 26.4527 73.4041 25.2736L72.697 24.5664ZM70.4586 25.78C71.5554 25.78 72.492 25.1782 73.2706 24.14L72.4706 23.54C71.8092 24.4218 71.1378 24.78 70.4586 24.78V25.78ZM73.2738 24.1357C73.5626 23.7419 73.8538 23.2321 74.1494 22.6164L73.2478 22.1836C72.9674 22.7679 72.7066 23.2181 72.4674 23.5443L73.2738 24.1357ZM74.1986 22.4V17.18H73.1986V22.4H74.1986ZM73.6986 16.68C72.5765 16.68 71.5007 16.741 70.4715 16.8635L70.5897 17.8565C71.5765 17.739 72.6127 17.68 73.6986 17.68V16.68ZM70.4666 16.8641C69.7215 16.9603 69.2265 17.019 68.9733 17.0421L69.0639 18.0379C69.3387 18.013 69.8517 17.9517 70.5946 17.8559L70.4666 16.8641ZM68.5634 17.3331C68.4268 17.6337 68.2984 18.0241 68.1751 18.4928L69.1421 18.7472C69.2588 18.3039 69.3704 17.9743 69.4738 17.7469L68.5634 17.3331ZM68.1751 18.4928C67.9248 19.4437 67.7986 20.3865 67.7986 21.32H68.7986C68.7986 20.4775 68.9124 19.6203 69.1421 18.7472L68.1751 18.4928ZM67.7986 21.32C67.7986 22.6961 68.0041 23.8067 68.4875 24.5744L69.3337 24.0416C69.0011 23.5133 68.7986 22.6319 68.7986 21.32H67.7986ZM68.4875 24.5744C68.963 25.3297 69.6222 25.78 70.4586 25.78V24.78C70.047 24.78 69.6741 24.5823 69.3337 24.0416L68.4875 24.5744ZM83.7955 25.46L83.6742 24.9749L83.2955 25.0696V25.46H83.7955ZM85.9555 24.92L86.0767 25.4051L86.4555 25.3104V24.92H85.9555ZM85.9555 1.88H86.4555V1.48961L86.0767 1.39493L85.9555 1.88ZM83.7955 1.34H83.2955V1.73039L83.6742 1.82507L83.7955 1.34ZM83.7955 0.799998V0.299998H83.2955V0.799998H83.7955ZM91.7155 24.92H91.2155V25.3104L91.5942 25.4051L91.7155 24.92ZM93.8755 25.46H94.3755V25.0696L93.9967 24.9749L93.8755 25.46ZM93.8755 26V26.5H94.3755V26H93.8755ZM83.7955 26H83.2955V26.5H83.7955V26ZM83.9167 25.9451L86.0767 25.4051L85.8342 24.4349L83.6742 24.9749L83.9167 25.9451ZM86.4555 24.92V1.88H85.4555V24.92H86.4555ZM86.0767 1.39493L83.9167 0.854927L83.6742 1.82507L85.8342 2.36507L86.0767 1.39493ZM84.2955 1.34V0.799998H83.2955V1.34H84.2955ZM83.7955 1.3H88.4755V0.299998H83.7955V1.3ZM88.4755 1.3C89.4784 1.3 90.1388 1.55039 90.5519 1.96355C90.9651 2.37671 91.2155 3.03707 91.2155 4.04H92.2155C92.2155 2.88293 91.9259 1.92329 91.259 1.25645C90.5922 0.589605 89.6325 0.299998 88.4755 0.299998V1.3ZM91.2155 4.04V24.92H92.2155V4.04H91.2155ZM91.5942 25.4051L93.7542 25.9451L93.9967 24.9749L91.8367 24.4349L91.5942 25.4051ZM93.3755 25.46V26H94.3755V25.46H93.3755ZM93.8755 25.5H83.7955V26.5H93.8755V25.5ZM84.2955 26V25.46H83.2955V26H84.2955ZM97.4698 32.876L97.1236 33.2367L97.1236 33.2367L97.4698 32.876ZM97.2898 28.376L96.9362 28.0223L96.9278 28.0312L97.2898 28.376ZM99.8458 27.656L99.9671 27.1709L99.9378 27.1636L99.9079 27.1599L99.8458 27.656ZM100.242 27.728L100.318 27.2338L100.28 27.228H100.242V27.728ZM100.71 27.8H101.21V27.371L100.786 27.3058L100.71 27.8ZM100.71 32.66H100.21V33.2536L100.795 33.1527L100.71 32.66ZM102.546 31.508L102.933 31.8238L102.933 31.8238L102.546 31.508ZM104.31 28.16L104.773 28.3493L104.774 28.3457L104.31 28.16ZM105.03 26.36L105.494 26.5457L105.581 26.328L105.469 26.1219L105.03 26.36ZM95.6698 9.08L96.1095 8.84186L96.0112 8.66039L95.8135 8.60109L95.6698 9.08ZM93.8698 8.54H93.3698V8.91201L93.7262 9.01891L93.8698 8.54ZM93.8698 8V7.5H93.3698V8H93.8698ZM101.322 8.792L101.026 9.1952L101.034 9.20072L101.041 9.20596L101.322 8.792ZM103.23 11.06L102.787 11.292L102.79 11.298L103.23 11.06ZM107.73 19.376L107.29 19.614L107.805 20.5657L108.196 19.5566L107.73 19.376ZM111.51 9.62L111.976 9.80064L112.155 9.33945L111.696 9.15576L111.51 9.62ZM108.81 8.54H108.31V8.87852L108.624 9.00424L108.81 8.54ZM108.81 8V7.5H108.31V8H108.81ZM115.47 8H115.97V7.5H115.47V8ZM115.47 8.54L115.645 9.00816L115.97 8.8865V8.54H115.47ZM112.59 9.62L112.414 9.15183L112.205 9.2304L112.124 9.43899L112.59 9.62ZM105.39 28.16L105.856 28.3418L105.856 28.341L105.39 28.16ZM102.942 32.408L102.588 32.0544L102.583 32.0593L102.942 32.408ZM99.9898 33.24C98.999 33.24 98.2977 32.9776 97.8161 32.5153L97.1236 33.2367C97.842 33.9264 98.8207 34.24 99.9898 34.24V33.24ZM97.8161 32.5153C97.3346 32.0531 97.0698 31.4028 97.0698 30.5H96.0698C96.0698 31.6132 96.4051 32.5469 97.1236 33.2367L97.8161 32.5153ZM97.0698 30.5C97.0698 29.6753 97.2852 29.1058 97.6519 28.7208L96.9278 28.0312C96.3344 28.6542 96.0698 29.5007 96.0698 30.5H97.0698ZM97.6434 28.7296C98.0398 28.3331 98.5656 28.12 99.2698 28.12V27.12C98.3421 27.12 97.5478 27.4109 96.9363 28.0224L97.6434 28.7296ZM99.2698 28.12C99.441 28.12 99.6122 28.1307 99.7838 28.1521L99.9079 27.1599C99.6954 27.1333 99.4827 27.12 99.2698 27.12V28.12ZM99.7246 28.1411C99.9102 28.1875 100.099 28.228 100.242 28.228V27.228C100.251 27.228 100.235 27.2284 100.178 27.2181C100.127 27.2087 100.057 27.1934 99.9671 27.1709L99.7246 28.1411ZM100.166 28.2222L100.634 28.2942L100.786 27.3058L100.318 27.2338L100.166 28.2222ZM100.21 27.8V32.66H101.21V27.8H100.21ZM100.795 33.1527C101.631 33.0086 102.344 32.5473 102.933 31.8238L102.158 31.1922C101.692 31.7647 101.181 32.0714 100.625 32.1673L100.795 33.1527ZM102.933 31.8238C103.511 31.1155 104.121 29.9416 104.773 28.3493L103.847 27.9707C103.202 29.5464 102.637 30.6045 102.158 31.1922L102.933 31.8238ZM104.774 28.3457L105.494 26.5457L104.566 26.1743L103.846 27.9743L104.774 28.3457ZM105.469 26.1219L96.1095 8.84186L95.2302 9.31814L104.59 26.5981L105.469 26.1219ZM95.8135 8.60109L94.0135 8.06109L93.7262 9.01891L95.5262 9.55891L95.8135 8.60109ZM94.3698 8.54V8H93.3698V8.54H94.3698ZM93.8698 8.5H98.3698V7.5H93.8698V8.5ZM98.3698 8.5C99.5527 8.5 100.42 8.75072 101.026 9.1952L101.618 8.3888C100.784 7.77728 99.683 7.5 98.3698 7.5V8.5ZM101.041 9.20596C101.701 9.65293 102.287 10.3381 102.787 11.292L103.673 10.828C103.116 9.7659 102.43 8.93907 101.602 8.37804L101.041 9.20596ZM102.79 11.298L107.29 19.614L108.17 19.138L103.67 10.822L102.79 11.298ZM108.196 19.5566L111.976 9.80064L111.044 9.43936L107.264 19.1954L108.196 19.5566ZM111.696 9.15576L108.996 8.07576L108.624 9.00424L111.324 10.0842L111.696 9.15576ZM109.31 8.54V8H108.31V8.54H109.31ZM108.81 8.5H115.47V7.5H108.81V8.5ZM114.97 8V8.54H115.97V8H114.97ZM115.294 8.07183L112.414 9.15183L112.765 10.0882L115.645 9.00816L115.294 8.07183ZM112.124 9.43899L104.924 27.979L105.856 28.341L113.056 9.801L112.124 9.43899ZM104.924 27.9782C104.165 29.922 103.38 31.2627 102.588 32.0544L103.295 32.7616C104.232 31.8253 105.078 30.334 105.856 28.3418L104.924 27.9782ZM102.583 32.0593C101.801 32.8636 100.942 33.24 99.9898 33.24V34.24C101.246 34.24 102.355 33.7284 103.3 32.7567L102.583 32.0593ZM115.002 25.568L114.641 25.9136L114.648 25.9216L114.656 25.9293L115.002 25.568ZM115.002 21.788L114.648 21.4344L114.648 21.4344L115.002 21.788ZM118.782 21.788L118.421 22.1336L118.428 22.1416L118.436 22.1493L118.782 21.788ZM118.782 25.568L118.428 25.2144L118.428 25.2144L118.782 25.568ZM116.91 25.86C116.327 25.86 115.813 25.6517 115.347 25.2067L114.656 25.9293C115.295 26.5403 116.053 26.86 116.91 26.86V25.86ZM115.363 25.2224C114.918 24.7572 114.71 24.2428 114.71 23.66H113.71C113.71 24.5172 114.029 25.2748 114.641 25.9136L115.363 25.2224ZM114.71 23.66C114.71 23.078 114.917 22.5797 115.355 22.1416L114.648 21.4344C114.03 22.0523 113.71 22.802 113.71 23.66H114.71ZM115.355 22.1416C115.822 21.6746 116.334 21.46 116.91 21.46V20.46C116.045 20.46 115.285 20.7974 114.648 21.4344L115.355 22.1416ZM116.91 21.46C117.484 21.46 117.98 21.6735 118.421 22.1336L119.143 21.4424C118.527 20.7985 117.775 20.46 116.91 20.46V21.46ZM118.436 22.1493C118.896 22.5894 119.11 23.0855 119.11 23.66H120.11C120.11 22.7945 119.771 22.0426 119.127 21.4267L118.436 22.1493ZM119.11 23.66C119.11 24.2356 118.895 24.7475 118.428 25.2144L119.135 25.9216C119.772 25.2845 120.11 24.5244 120.11 23.66H119.11ZM118.428 25.2144C117.99 25.6526 117.492 25.86 116.91 25.86V26.86C117.768 26.86 118.518 26.5394 119.135 25.9216L118.428 25.2144Z" fill="#2023B1"/>
</svg>
